<?xml version="1.0" encoding="UTF-8" standalone="no"?>
<!-- Generator: Adobe Illustrator 23.0.3, SVG Export Plug-In . SVG Version: 6.00 Build 0)  -->

<svg
   xmlns:dc="http://purl.org/dc/elements/1.1/"
   xmlns:cc="http://creativecommons.org/ns#"
   xmlns:rdf="http://www.w3.org/1999/02/22-rdf-syntax-ns#"
   xmlns:svg="http://www.w3.org/2000/svg"
   xmlns="http://www.w3.org/2000/svg"
   xmlns:sodipodi="http://sodipodi.sourceforge.net/DTD/sodipodi-0.dtd"
   xmlns:inkscape="http://www.inkscape.org/namespaces/inkscape"
   version="1.1"
   id="Layer_1"
   x="0px"
   y="0px"
   width="678px"
   height="935px"
   viewBox="0 0 678 935"
   style="enable-background:new 0 0 678 935;"
   xml:space="preserve"
   sodipodi:docname="icon-sprite.svg"
   inkscape:version="0.92.4 (f8dce91, 2019-08-02)"><metadata
   id="metadata1774"><rdf:RDF><cc:Work
       rdf:about=""><dc:format>image/svg+xml</dc:format><dc:type
         rdf:resource="http://purl.org/dc/dcmitype/StillImage" /><dc:title></dc:title></cc:Work></rdf:RDF></metadata><defs
   id="defs1772" /><sodipodi:namedview
   pagecolor="#ffffff"
   bordercolor="#666666"
   borderopacity="1"
   objecttolerance="10"
   gridtolerance="10"
   guidetolerance="10"
   inkscape:pageopacity="0"
   inkscape:pageshadow="2"
   inkscape:window-width="1920"
   inkscape:window-height="970"
   id="namedview1770"
   showgrid="false"
   inkscape:zoom="5.2696471"
   inkscape:cx="83.549884"
   inkscape:cy="54.920739"
   inkscape:window-x="0"
   inkscape:window-y="27"
   inkscape:window-maximized="1"
   inkscape:current-layer="Layer_1" />
<rect
   x="-6.809"
   y="-8.191"
   style="display:none;fill:#003333;"
   width="687.809"
   height="949"
   id="rect920" />
<rect
   y="903"
   style="fill:none"
   width="95"
   height="25"
   id="rect922" />
<rect
   y="864"
   style="fill:none"
   width="114"
   height="30"
   id="rect924" />
<path
   style="fill:#3C5563;"
   d="M20.913,19.853l-0.265,0.266l-0.727-0.728c1.493-1.766,1.425-4.403-0.243-6.071  c-1.758-1.757-4.606-1.76-6.361-0.004c-1.756,1.755-1.754,4.604,0.004,6.361c1.668,1.669,4.305,1.736,6.071,0.243l0.728,0.728  l-0.266,0.265L22.941,24l1.06-1.06L20.913,19.853z M14.381,18.618c-1.172-1.172-1.175-3.07-0.004-4.242  c1.17-1.17,3.07-1.168,4.242,0.004c1.172,1.172,1.173,3.071,0.003,4.241C17.451,19.792,15.553,19.79,14.381,18.618z"
   id="path926" />
<path
   style="fill:#3C5563;"
   d="M18.388,56.563c-0.059-0.131-0.12-0.292-0.18-0.481c-0.059-0.188-0.09-0.4-0.09-0.633  c0-0.276,0.071-0.528,0.212-0.756c0.142-0.228,0.32-0.447,0.535-0.659c0.214-0.211,0.446-0.423,0.694-0.634  c0.247-0.211,0.478-0.453,0.693-0.727c0.215-0.274,0.394-0.575,0.535-0.9C20.928,51.447,21,51.076,21,50.66  c0-0.44-0.084-0.824-0.253-1.155c-0.17-0.331-0.401-0.606-0.694-0.829c-0.293-0.224-0.637-0.391-1.029-0.506  C18.631,48.058,18.217,48,17.775,48c-0.958,0-1.883,0.261-2.775,0.779v1.881c0.735-0.722,1.507-1.083,2.319-1.083  c0.251,0,0.486,0.03,0.706,0.089c0.22,0.062,0.416,0.151,0.587,0.273c0.172,0.123,0.307,0.276,0.405,0.455  c0.098,0.183,0.146,0.395,0.146,0.639c0,0.271-0.066,0.519-0.2,0.749c-0.134,0.228-0.3,0.444-0.497,0.65  c-0.2,0.206-0.413,0.418-0.644,0.633c-0.232,0.218-0.447,0.442-0.645,0.675c-0.198,0.232-0.365,0.483-0.497,0.753  c-0.134,0.268-0.2,0.567-0.2,0.897c0,0.214,0.019,0.427,0.057,0.643c0.038,0.218,0.082,0.395,0.131,0.53H18.388z M18.413,59.684  c0.229-0.206,0.342-0.461,0.342-0.765c0-0.309-0.113-0.563-0.342-0.764c-0.234-0.219-0.507-0.325-0.816-0.325  c-0.316,0-0.591,0.106-0.825,0.325c-0.229,0.2-0.342,0.455-0.342,0.764c0,0.304,0.113,0.559,0.342,0.765  C17.011,59.895,17.286,60,17.597,60C17.9,60,18.173,59.895,18.413,59.684L18.413,59.684z"
   id="path928" />
<path
   style="fill:#3C5563;"
   d="M18,127.999c-2.276,0-4.363,0.802-6,2.136V132h12v-1.865C22.364,128.801,20.276,127.999,18,127.999z   M18,125.999c1.657,0,3-1.343,3-2.999c0-1.657-1.343-3-3-3c-1.656,0-3,1.343-3,3C15,124.656,16.344,125.999,18,125.999z"
   id="path930" />
<path
   style="fill:#FFFFFF;"
   d="M24.889,193.232l-2.01,2.01l-2.121-2.121l2.01-2.01C22.521,191.046,22.267,191,22,191  c-1.657,0-3,1.343-3,3c0,0.267,0.046,0.522,0.111,0.768l-4.345,4.344C14.521,199.045,14.267,199,14,199c-1.657,0-3,1.343-3,3  c0,0.268,0.046,0.522,0.111,0.768l2.01-2.01l2.121,2.121l-2.01,2.01C13.479,204.954,13.733,205,14,205c1.657,0,3-1.343,3-3  c0-0.267-0.045-0.521-0.111-0.768l4.346-4.344C21.479,196.955,21.733,197,22,197c1.657,0,3-1.343,3-3  C25,193.732,24.954,193.479,24.889,193.232z"
   id="path932" />
<path
   style="fill:#FFFFFF;"
   d="M11,372v2h14v-2H11z M11,379h14v-2H11V379z M11,384h14v-2H11V384z"
   id="path934" />
<path
   style="fill:#FFFFFF;"
   d="M18.697,409.253c0.181,0.223,0.48,0.333,0.897,0.333c0.444,0,0.79-0.157,1.036-0.47  c0.245-0.313,0.369-0.661,0.369-1.047c0-0.316-0.103-0.572-0.308-0.771C20.487,407.1,20.206,407,19.851,407  c-0.418,0-0.76,0.138-1.027,0.416c-0.267,0.278-0.4,0.612-0.4,1.003C18.425,408.755,18.516,409.033,18.697,409.253z M15.348,414.171  c0.931-0.606,1.524-0.909,1.785-0.909c0.156,0,0.236,0.088,0.236,0.265c0,0.359-0.287,1.554-0.862,3.581  c-0.258,0.908-0.429,1.549-0.507,1.918c-0.079,0.367-0.118,0.699-0.118,0.99c0,0.29,0.064,0.526,0.196,0.71  c0.129,0.184,0.328,0.274,0.594,0.274c0.211,0,0.461-0.051,0.744-0.15c0.283-0.101,0.757-0.355,1.421-0.762  c0.663-0.407,1.233-0.769,1.713-1.084l0.041-0.124l-0.226-0.377l-0.123-0.011c-0.891,0.586-1.437,0.882-1.643,0.882  c-0.075,0-0.143-0.034-0.2-0.101c-0.058-0.067-0.086-0.145-0.086-0.233c0-0.321,0.296-1.499,0.892-3.531  c0.34-1.183,0.565-1.982,0.672-2.406c0.105-0.424,0.159-0.773,0.159-1.052c0-0.209-0.061-0.38-0.185-0.517  c-0.123-0.137-0.271-0.202-0.441-0.202c-0.376,0-0.901,0.179-1.576,0.537c-0.674,0.362-1.613,0.974-2.816,1.839L15,413.831  l0.204,0.331L15.348,414.171z"
   id="path936" />
<g
   id="g946">
	<path
   style="fill:#768D99;"
   d="M22,486c0-1.476-0.81-2.745-1.999-3.435v6.871C21.19,488.745,22,487.476,22,486z"
   id="path938" />
	<g
   id="g944">
		<polygon
   style="fill:#768D99;"
   points="11,483.375 11,488.625 13.557,488.625 18,493 18,479 13.557,483.375   "
   id="polygon940" />
		<path
   style="fill:#768D99;"
   d="M20.001,479.306v1.58c2.046,0.8,3.499,2.782,3.499,5.114c0,2.328-1.453,4.313-3.499,5.113v1.58    C22.889,491.833,25,489.168,25,486C25,482.83,22.889,480.166,20.001,479.306z"
   id="path942" />
	</g>
</g>
<path
   style="fill:#768D99;"
   d="M23.5,522c0,0.393-0.055,0.769-0.134,1.139l1.216,1.216C24.848,523.618,25,522.829,25,522  c0-3.17-2.111-5.834-4.998-6.694v1.58C22.047,517.685,23.5,519.668,23.5,522z M20.002,518.565v1.21l1.981,1.982  C21.899,520.386,21.125,519.216,20.002,518.565z M24.7,527.301l-12.01-12.011l-1.407,1.406l2.478,2.478l-0.204,0.201H11v5.25h2.557  L18,529v-5.586l2.002,2.002v0.019c0.004-0.002,0.008-0.006,0.012-0.008l1.087,1.087c-0.343,0.235-0.706,0.444-1.099,0.599v1.58  c0.795-0.237,1.522-0.622,2.172-1.106l1.129,1.13l1.414-1.414l-0.01-0.011L24.7,527.301z M18,515l-1.397,1.375L18,517.773V515z"
   id="path948" />
<path
   style="fill:#768D99;"
   d="M18,565c1.105,0,2-0.896,2-2h-4C16,564.104,16.896,565,18,565z M22,559.625v-3  c0-1.861-1.278-3.412-3-3.858V552c0-0.553-0.447-1-1-1s-1,0.447-1,1v0.767c-1.722,0.446-2.999,1.997-2.999,3.858v2.999L12,561.625  h12L22,559.625z"
   id="path950" />
<path
   style="fill:#768D99;"
   d="M22,592.625c0-1.861-1.279-3.412-3-3.858V588c0-0.553-0.447-1-1-1s-1,0.447-1,1v0.767  c-0.012,0.003-0.021,0.008-0.033,0.011L22,593.811V592.625z M18,601c1.105,0,2-0.896,2-2h-4C16,600.104,16.896,601,18,601z   M24.993,599.593l-0.007,0.008l-12.593-12.596L11,588.402l3.158,3.158c-0.095,0.341-0.158,0.693-0.158,1.064v2.999l-2,2.001h8.222  L23.596,601L25,599.6L24.993,599.593z"
   id="path952" />
<g
   id="g958">
	<g
   id="g956">
		<path
   style="fill:#768D99;"
   d="M24,628c-1.104,0-2,0.896-2,2s0.896,2,2,2s2-0.896,2-2S25.104,628,24,628z M12,628    c-1.104,0-2,0.896-2,2s0.896,2,2,2s2-0.896,2-2S13.104,628,12,628z M18,628c-1.104,0-2,0.896-2,2s0.896,2,2,2s2-0.896,2-2    S19.104,628,18,628z"
   id="path954" />
	</g>
</g>
<path
   style="fill:#768D99;"
   d="M24.143,667.974L18,662l-6.142,5.974c-0.477,0.464-0.477,1.216,0,1.679  c0.477,0.464,1.249,0.464,1.726,0L18,665.356l4.417,4.296c0.477,0.464,1.249,0.464,1.726,0  C24.619,669.188,24.619,668.438,24.143,667.974z"
   id="path960" />
<path
   style="fill:#768D99;"
   d="M11.857,700.026L18,706l6.142-5.974c0.478-0.464,0.478-1.216,0-1.679  c-0.477-0.463-1.249-0.463-1.726,0L18,702.644l-4.417-4.296c-0.477-0.463-1.249-0.463-1.726,0  C11.381,698.81,11.381,699.563,11.857,700.026z"
   id="path962" />
<path
   style="fill:#ACBBC2;"
   d="M18,729c-4.971,0-9,4.029-9,9.001c0,4.971,4.029,8.999,9,8.999c4.971,0,9-4.028,9-8.999  C27,733.029,22.971,729,18,729z M19,743.001h-2v-6.002h2V743.001z M19,735h-2v-2h2V735z"
   id="path964" />
<path
   style="fill:#ACBBC2;"
   d="M19,783v-2h2v2H19z M19,777h2v2h-2V777z M19,773h2v2h-2V773z M19,769h2v2h-2V769z M19,765h2v2h-2V765  z M15,781h2v2h-2V781z M15,777h2v2h-2V777z M15,773h2v2h-2V773z M15,769h2v2h-2V769z M15,765h2v2h-2V765z"
   id="path966" />
<path
   style="fill:#768D99;"
   d="M23.769,841.741c-0.308-0.321-0.808-0.321-1.116,0l-6.514,6.775l-2.791-2.903  c-0.308-0.321-0.809-0.321-1.116,0c-0.308,0.32-0.308,0.84,0,1.161l3.349,3.485c0.309,0.32,0.809,0.32,1.117,0l7.071-7.358  C24.077,842.581,24.077,842.062,23.769,841.741z"
   id="path968" />


<path
   style="fill:#3C5563;"
   d="M23,84H13C12.449,84,12,84.447,12,85v10c0,0.553,0.448,1,0.999,1h10c0.553,0,1-0.447,1-1V85  C24,84.447,23.552,84,23,84z M21.018,93.82h-6.035v-1.232l3.54-4.814h-3.328V86.18h5.7v1.354l-3.444,4.693h3.567V93.82z"
   id="path1022" />
<g
   id="g1028">
	<polygon
   style="fill:#FFFFFF;"
   points="25,227 19.628,227 21.632,229.005 19,231.638 20.362,233 22.994,230.368 25,232.374  "
   id="polygon1024" />
	<polygon
   style="fill:#FFFFFF;"
   points="15.638,235 13.006,237.633 11,235.627 11,241 16.373,241 14.368,238.995 17,236.363  "
   id="polygon1026" />
</g>
<g
   id="g1034">
	<polygon
   style="fill:#FFFFFF;"
   points="25,264.362 23.638,263 21.006,265.632 19,263.626 19,269 24.372,269 22.368,266.995  "
   id="polygon1030" />
	<polygon
   style="fill:#FFFFFF;"
   points="13.632,273.005 11,275.637 12.362,277 14.994,274.367 17,276.373 17,271 11.627,271  "
   id="polygon1032" />
</g>
<path
   style="fill:#3C5563;"
   d="M22.35,158.065l-1.063,1.061c0.742,0.786,1.213,1.821,1.213,2.979c0,2.442-2.016,4.422-4.5,4.422  s-4.5-1.98-4.5-4.422c0-1.157,0.471-2.192,1.213-2.978l-1.063-1.062c-1.018,1.054-1.65,2.471-1.65,4.039  c0,3.256,2.688,5.895,6,5.895c3.315,0,6-2.64,6-5.895C24,160.536,23.367,159.119,22.35,158.065z M19,156h-2v6h2V156z"
   id="path1036" />
<path
   style="fill:#FFFFFF;"
   d="M96.388,56.563c-0.059-0.131-0.12-0.292-0.18-0.481c-0.059-0.188-0.09-0.4-0.09-0.633  c0-0.276,0.071-0.528,0.212-0.756c0.142-0.228,0.32-0.447,0.535-0.659c0.214-0.211,0.446-0.423,0.694-0.634  c0.247-0.211,0.478-0.453,0.693-0.727c0.215-0.274,0.394-0.575,0.535-0.9C98.928,51.447,99,51.076,99,50.66  c0-0.44-0.085-0.824-0.253-1.155c-0.17-0.331-0.401-0.606-0.694-0.829c-0.293-0.224-0.637-0.391-1.029-0.506  C96.631,48.058,96.217,48,95.775,48c-0.957,0-1.883,0.261-2.775,0.779v1.881c0.735-0.722,1.507-1.083,2.319-1.083  c0.251,0,0.486,0.03,0.706,0.089c0.22,0.062,0.416,0.151,0.587,0.273c0.172,0.123,0.307,0.276,0.405,0.455  c0.098,0.183,0.146,0.395,0.146,0.639c0,0.271-0.066,0.519-0.2,0.749c-0.134,0.228-0.3,0.444-0.497,0.65  c-0.2,0.206-0.413,0.418-0.645,0.633c-0.231,0.218-0.447,0.442-0.645,0.675c-0.198,0.232-0.365,0.483-0.497,0.753  c-0.134,0.268-0.2,0.567-0.2,0.897c0,0.214,0.018,0.427,0.057,0.643c0.038,0.218,0.082,0.395,0.131,0.53H96.388z M96.413,59.684  c0.229-0.206,0.342-0.461,0.342-0.765c0-0.309-0.113-0.563-0.342-0.764c-0.234-0.219-0.507-0.325-0.816-0.325  c-0.316,0-0.591,0.106-0.825,0.325c-0.229,0.2-0.342,0.455-0.342,0.764c0,0.304,0.113,0.559,0.342,0.765  C95.011,59.895,95.286,60,95.597,60C95.9,60,96.173,59.895,96.413,59.684L96.413,59.684z"
   id="path1038" />
<path
   style="fill:#FFFFFF;"
   d="M96,127.999c-2.276,0-4.363,0.802-6,2.136V132h12v-1.865C100.364,128.801,98.276,127.999,96,127.999z   M96,125.999c1.657,0,3-1.343,3-2.999c0-1.657-1.343-3-3-3c-1.656,0-3,1.343-3,3C93,124.656,94.344,125.999,96,125.999z"
   id="path1040" />
<path
   style="fill:#FFFFFF;"
   d="M100.999,84h-10c-0.551,0-0.999,0.447-0.999,1v10c0,0.553,0.448,1,0.999,1h10c0.553,0,1-0.447,1-1V85  C101.999,84.447,101.552,84,100.999,84z M99.018,93.82h-6.035v-1.232l3.54-4.814h-3.328V86.18h5.7v1.354l-3.444,4.693h3.567V93.82z"
   id="path1042" />
<path
   style="fill:#FFFFFF;"
   d="M100.35,158.065l-1.062,1.061c0.742,0.786,1.213,1.821,1.213,2.979c0,2.442-2.016,4.422-4.5,4.422  s-4.5-1.98-4.5-4.422c0-1.157,0.471-2.192,1.213-2.978l-1.063-1.062c-1.018,1.054-1.65,2.471-1.65,4.039  c0,3.256,2.688,5.895,6,5.895c3.314,0,6-2.64,6-5.895C102,160.536,101.367,159.119,100.35,158.065z M97,156h-2v6h2V156z"
   id="path1044" />
<path
   style="fill:#ACBBC2;"
   d="M61.5,837h-15c-0.828,0-1.5,0.672-1.5,1.5v15c0,0.828,0.672,1.5,1.5,1.5h15  c0.828,0,1.5-0.672,1.5-1.5v-15C63,837.672,62.328,837,61.5,837z M61,853.002H47v-12h14V853.002z M51,844.002h-2v2h2V844.002z   M59,844.002h-2v2h2V844.002z M55,844.002h-2v2h2V844.002z M55,848.002h-2v2h2V848.002z M51,848.002h-2v2h2V848.002z M59,848.002h-2  v2h2V848.002z"
   id="path1046" />
<path
   style="fill:#F3A914;"
   d="M58.787,807.22l-2.186,2.185l-2.009-2.009l2.186-2.183c-1.209-0.447-2.62-0.192-3.592,0.779  c-1.02,1.02-1.251,2.522-0.708,3.768L49,813.233L50.768,815l3.48-3.477c1.245,0.537,2.742,0.303,3.759-0.715  C58.979,809.838,59.234,808.429,58.787,807.22z"
   id="path1048" />
<path
   style="fill:#768D99;"
   d="M55,777v-5.211c0.881-0.387,1.5-1.264,1.5-2.289c0-1.381-1.121-2.5-2.5-2.5  c-1.383,0-2.5,1.119-2.5,2.5c0,1.025,0.617,1.904,1.5,2.289V777h-3l4,4l4-4H55z"
   id="path1050" />
<path
   style="fill:#768D99;"
   d="M53,735v5.211c-0.881,0.387-1.5,1.264-1.5,2.289c0,1.381,1.121,2.5,2.5,2.5  c1.383,0,2.5-1.119,2.5-2.5c0-1.025-0.617-1.904-1.5-2.289V735h3l-4-4l-4,4H53z"
   id="path1052" />
<path
   style="fill:#768D99;"
   d="M61.681,695.711c-0.423-0.446-1.111-0.449-1.535,0l-8.449,8.907l-3.844-4.052  c-0.424-0.447-1.111-0.447-1.534,0c-0.425,0.447-0.426,1.172,0,1.617l4.604,4.858c0.214,0.224,0.494,0.334,0.774,0.333  c0.28,0.001,0.56-0.109,0.773-0.333l9.21-9.713C62.106,696.882,62.106,696.158,61.681,695.711z"
   id="path1054" />
<path
   style="fill:#FFFFFF;"
   d="M98.912,19.853l-0.265,0.266l-0.728-0.728c1.493-1.766,1.425-4.403-0.243-6.071  c-1.758-1.757-4.607-1.76-6.361-0.004c-1.756,1.755-1.754,4.604,0.004,6.361c1.668,1.669,4.305,1.736,6.071,0.243l0.728,0.728  l-0.266,0.265L100.94,24l1.06-1.06L98.912,19.853z M92.38,18.618c-1.172-1.172-1.175-3.07-0.004-4.242  c1.17-1.17,3.07-1.168,4.242,0.004c1.172,1.172,1.173,3.071,0.003,4.241C95.45,19.792,93.552,19.79,92.38,18.618z"
   id="path1056" />
<path
   d="M174.388,56.563c-0.059-0.131-0.12-0.292-0.18-0.481c-0.059-0.188-0.09-0.4-0.09-0.633c0-0.276,0.071-0.528,0.212-0.756  c0.142-0.228,0.32-0.447,0.535-0.659c0.214-0.211,0.446-0.423,0.694-0.634c0.247-0.211,0.478-0.453,0.693-0.727  c0.215-0.274,0.394-0.575,0.535-0.9c0.14-0.325,0.212-0.696,0.212-1.112c0-0.44-0.085-0.824-0.253-1.155  c-0.17-0.331-0.401-0.606-0.694-0.829c-0.293-0.224-0.637-0.391-1.029-0.506c-0.393-0.112-0.807-0.17-1.249-0.17  c-0.957,0-1.883,0.261-2.775,0.779v1.881c0.735-0.722,1.507-1.083,2.319-1.083c0.251,0,0.486,0.03,0.706,0.089  c0.22,0.062,0.416,0.151,0.587,0.273c0.172,0.123,0.307,0.276,0.405,0.455c0.098,0.183,0.146,0.395,0.146,0.639  c0,0.271-0.066,0.519-0.2,0.749c-0.134,0.228-0.3,0.444-0.497,0.65c-0.2,0.206-0.413,0.418-0.645,0.633  c-0.231,0.218-0.447,0.442-0.645,0.675c-0.198,0.232-0.365,0.483-0.497,0.753c-0.134,0.268-0.2,0.567-0.2,0.897  c0,0.214,0.018,0.427,0.057,0.643c0.038,0.218,0.082,0.395,0.131,0.53H174.388z M174.413,59.684  c0.229-0.206,0.342-0.461,0.342-0.765c0-0.309-0.113-0.563-0.342-0.764c-0.234-0.219-0.507-0.325-0.816-0.325  c-0.316,0-0.591,0.106-0.825,0.325c-0.229,0.2-0.342,0.455-0.342,0.764c0,0.304,0.113,0.559,0.342,0.765  c0.24,0.211,0.514,0.316,0.825,0.316C173.9,60,174.173,59.895,174.413,59.684L174.413,59.684z"
   id="path1058" />
<path
   d="M174,127.999c-2.276,0-4.363,0.802-6,2.136V132h12v-1.865C178.364,128.801,176.276,127.999,174,127.999z M174,125.999  c1.657,0,3-1.343,3-2.999c0-1.657-1.343-3-3-3c-1.656,0-3,1.343-3,3C171,124.656,172.344,125.999,174,125.999z"
   id="path1060" />
<path
   d="M178.999,84h-10c-0.551,0-0.999,0.447-0.999,1v10c0,0.553,0.448,1,0.999,1h10c0.553,0,1-0.447,1-1V85  C179.999,84.447,179.552,84,178.999,84z M177.018,93.82h-6.035v-1.232l3.54-4.814h-3.328V86.18h5.7v1.354l-3.444,4.693h3.567V93.82z  "
   id="path1062" />
<path
   d="M178.35,158.065l-1.063,1.061c0.742,0.786,1.213,1.821,1.213,2.979c0,2.442-2.016,4.422-4.5,4.422  c-2.484,0-4.5-1.98-4.5-4.422c0-1.157,0.471-2.192,1.213-2.978l-1.063-1.062c-1.018,1.054-1.65,2.471-1.65,4.039  c0,3.256,2.688,5.895,6,5.895c3.314,0,6-2.64,6-5.895C180,160.536,179.367,159.119,178.35,158.065z M175,156h-2v6h2V156z"
   id="path1064" />
<path
   d="M176.912,19.853l-0.265,0.266l-0.728-0.728c1.493-1.766,1.425-4.403-0.243-6.071c-1.758-1.757-4.606-1.76-6.361-0.004  c-1.756,1.755-1.754,4.604,0.004,6.361c1.668,1.669,4.305,1.736,6.071,0.243l0.728,0.728l-0.266,0.265L178.94,24l1.06-1.06  L176.912,19.853z M170.38,18.618c-1.172-1.172-1.175-3.07-0.004-4.242c1.17-1.17,3.07-1.168,4.242,0.004  c1.172,1.172,1.173,3.071,0.003,4.241C173.45,19.792,171.552,19.79,170.38,18.618z"
   id="path1066" />
<g
   id="g1070">
	<path
   style="fill:#FFFFFF;"
   d="M18,299l-2.102,4.7L11,304.349l0.712,0.703l0,0l0.189,0.186l0,0l2.699,2.664l0,0l0,0L13.673,313   l0.866-0.501l0,0l0.271-0.156l0,0L18,310.498l3.19,1.845l0,0l0.271,0.156l0,0L22.326,313l-0.927-5.098l0,0l0,0l2.7-2.664l0,0   l0.189-0.186l0,0L25,304.349l-4.899-0.648L18,299L18,299z M13.156,305.071l2.873-0.38l0.554-0.073l0.228-0.51L18,301.45   l1.188,2.658l0.228,0.51l0.554,0.073l2.874,0.38l-2.147,2.119l-0.376,0.37l0.094,0.521l0.54,2.971l-2.454-1.42L18,309.343   l-0.501,0.289l-2.455,1.42l0.54-2.971l0.094-0.521l-0.376-0.37L13.156,305.071L13.156,305.071z"
   id="path1068" />
</g>
<g
   id="g1076">
	<path
   style="fill:#F3A914;"
   d="M16.241,338.158c0,0-2.889,0.383-4.163,0.552c0.926,0.914,3.061,3.021,3.061,3.021   s-0.538,2.963-0.781,4.296C15.508,345.361,18,343.92,18,343.92s2.492,1.441,3.641,2.107c-0.242-1.333-0.781-4.296-0.781-4.296   s2.135-2.107,3.062-3.021c-1.274-0.169-4.163-0.552-4.163-0.552s-1.199-2.683-1.759-3.934   C17.44,335.476,16.241,338.158,16.241,338.158z"
   id="path1072" />
	<path
   style="fill:#F3A914;"
   d="M18,333l-2.102,4.7L11,338.349l0.712,0.703l0,0l0.189,0.186l0,0l2.699,2.664l0,0l0,0L13.673,347   l0.866-0.501l0,0l0.271-0.156l0,0L18,344.498l3.19,1.845l0,0l0.271,0.156l0,0L22.326,347l-0.927-5.098l0,0l0,0l2.7-2.664l0,0   l0.189-0.186l0,0L25,338.349l-4.899-0.648L18,333L18,333z M13.156,339.071l2.873-0.38l0.554-0.073l0.228-0.51L18,335.45   l1.188,2.658l0.228,0.51l0.554,0.073l2.874,0.38l-2.147,2.119l-0.376,0.37l0.094,0.521l0.54,2.971l-2.454-1.42L18,343.343   l-0.501,0.289l-2.455,1.42l0.54-2.971l0.094-0.521l-0.376-0.37L13.156,339.071L13.156,339.071z"
   id="path1074" />
</g>
<path
   style="fill:#FFFFFF;"
   d="M53,671h2v-6h-2V671z M53,661v2h2v-2H53z"
   id="path1078" />
<path
   style="fill:#768D99;"
   d="M59.112,629.979L61,629.507c-0.185-0.869-0.529-1.678-0.997-2.396l-1.663,0.998l-1.447-1.448  l0.998-1.663c-0.72-0.468-1.528-0.812-2.397-0.997l-0.472,1.888h-2.045L52.505,624c-0.868,0.185-1.676,0.529-2.397,0.997  l0.998,1.663l-1.446,1.446l-1.663-0.998c-0.47,0.721-0.813,1.529-0.997,2.398l1.886,0.472v2.045L47,632.495  c0.184,0.869,0.527,1.676,0.996,2.396l1.664-0.998l1.446,1.446l-0.998,1.663c0.721,0.47,1.528,0.813,2.397,0.997l0.472-1.886h2.045  L55.493,638c0.869-0.184,1.678-0.527,2.397-0.997l-0.999-1.663l1.447-1.446l1.664,0.998c0.468-0.721,0.813-1.527,0.997-2.396  l-1.888-0.472V629.979z M53.999,633.046c-1.129,0-2.045-0.914-2.045-2.045c0-1.131,0.916-2.045,2.045-2.045  c1.13,0,2.045,0.914,2.045,2.045C56.044,632.132,55.129,633.046,53.999,633.046z"
   id="path1080" />
<path
   style="fill:#768D99;"
   d="M56,588v-1h-4v1h-4v2h12v-2H56z M49,599.5c0,0.828,0.672,1.5,1.5,1.5h7c0.828,0,1.5-0.672,1.5-1.5  V591H49V599.5z M55.25,593h1.5v6h-1.5V593z M51.25,593h1.5v6h-1.5V593z"
   id="path1082" />
<path
   id="path4237-4-1"
   style="fill:#FFFFFF;"
   d="M97.974,729.357L92,735.5l5.974,6.142c0.464,0.478,1.216,0.478,1.679,0  c0.463-0.477,0.463-1.249,0-1.726l-4.297-4.416l4.296-4.417c0.463-0.477,0.463-1.249,0-1.726  C99.189,728.88,98.437,728.881,97.974,729.357z" />
<path
   id="path4237-4"
   style="fill:#0275B8;"
   d="M97.974,695.857L92,702l5.974,6.142c0.464,0.478,1.216,0.478,1.679,0  c0.463-0.477,0.463-1.249,0-1.726L95.356,702l4.296-4.417c0.463-0.477,0.463-1.249,0-1.726  C99.189,695.38,98.437,695.38,97.974,695.857z" />
<path
   id="path4237-4_3_"
   d="M256.974,662.356L251,668.499l5.974,6.142c0.464,0.478,1.216,0.478,1.679,0  c0.463-0.477,0.463-1.249,0-1.726l-4.297-4.416l4.296-4.417c0.463-0.477,0.463-1.249,0-1.726  C258.189,661.879,257.437,661.88,256.974,662.356z" />
<path
   id="path4237-4_4_"
   d="M253.026,641.142l5.974-6.143l-5.974-6.142c-0.464-0.478-1.216-0.478-1.679,0  c-0.463,0.477-0.463,1.249,0,1.726l4.297,4.416l-4.296,4.417c-0.463,0.477-0.463,1.249,0,1.726S252.563,641.618,253.026,641.142z" />
<path
   id="path4237-4_8_"
   style="fill:#768D99;"
   d="M97.974,662.356L92,668.499l5.974,6.142c0.464,0.478,1.216,0.478,1.679,0  c0.463-0.477,0.463-1.249,0-1.726l-4.297-4.416l4.296-4.417c0.463-0.477,0.463-1.249,0-1.726  C99.189,661.879,98.437,661.88,97.974,662.356z" />
<path
   id="path4237-4_7_"
   style="fill:#768D99;"
   d="M94.026,641.142l5.974-6.143l-5.974-6.142c-0.464-0.478-1.216-0.478-1.679,0  c-0.463,0.477-0.463,1.249,0,1.726l4.297,4.416l-4.296,4.417c-0.463,0.477-0.463,1.249,0,1.726  C92.811,641.619,93.563,641.618,94.026,641.142z" />
<path
   id="path4237-4_6_"
   style="fill:#FFFFFF;"
   d="M409.974,662.356L404,668.499l5.974,6.142c0.464,0.478,1.216,0.478,1.679,0  c0.463-0.477,0.463-1.249,0-1.726l-4.297-4.416l4.296-4.417c0.463-0.477,0.463-1.249,0-1.726  C411.189,661.879,410.437,661.88,409.974,662.356z" />
<path
   id="path4237-4_5_"
   style="fill:#FFFFFF;"
   d="M406.026,641.142l5.974-6.143l-5.974-6.142c-0.464-0.478-1.216-0.478-1.679,0  c-0.463,0.477-0.463,1.249,0,1.726l4.297,4.416l-4.296,4.417c-0.463,0.477-0.463,1.249,0,1.726  C404.811,641.619,405.563,641.618,406.026,641.142z" />
<g
   id="g1100">
	<path
   d="M181,486c0-1.476-0.81-2.745-1.999-3.435v6.871C180.19,488.745,181,487.476,181,486z"
   id="path1092" />
	<g
   id="g1098">
		<polygon
   points="170,483.375 170,488.625 172.557,488.625 177,493 177,479 172.557,483.375   "
   id="polygon1094" />
		<path
   d="M179.001,479.306v1.58c2.046,0.8,3.499,2.782,3.499,5.114c0,2.328-1.453,4.313-3.499,5.113v1.58    c2.888-0.86,4.999-3.525,4.999-6.693C184,482.83,181.889,480.166,179.001,479.306z"
   id="path1096" />
	</g>
</g>
<path
   d="M182.5,522c0,0.393-0.055,0.769-0.134,1.139l1.216,1.216c0.266-0.736,0.418-1.525,0.418-2.354  c0-3.17-2.111-5.834-4.998-6.694v1.58C181.047,517.685,182.5,519.668,182.5,522z M179.002,518.565v1.21l1.981,1.982  C180.899,520.386,180.124,519.216,179.002,518.565z M183.7,527.301l-12.01-12.011l-1.407,1.406l2.478,2.478l-0.204,0.201H170v5.25  h2.557L177,529v-5.586l2.002,2.002v0.019c0.004-0.002,0.008-0.006,0.012-0.008l1.087,1.087c-0.343,0.235-0.706,0.444-1.099,0.599  v1.58c0.795-0.237,1.522-0.622,2.172-1.106l1.129,1.13l1.414-1.414l-0.01-0.011L183.7,527.301z M177,515l-1.397,1.375l1.397,1.398  V515z"
   id="path1102" />
<path
   d="M177,565c1.105,0,2-0.896,2-2h-4C175,564.104,175.896,565,177,565z M181,559.625v-3c0-1.861-1.278-3.412-3-3.858V552  c0-0.553-0.447-1-1-1c-0.553,0-1,0.447-1,1v0.767c-1.722,0.446-2.999,1.997-2.999,3.858v2.999L171,561.625h12L181,559.625z"
   id="path1104" />
<path
   d="M181,592.625c0-1.861-1.279-3.412-3-3.858V588c0-0.553-0.447-1-1-1c-0.553,0-1,0.447-1,1v0.767  c-0.012,0.003-0.021,0.008-0.033,0.011l5.033,5.033V592.625z M177,601c1.105,0,2-0.896,2-2h-4C175,600.104,175.896,601,177,601z   M183.993,599.593l-0.007,0.008l-12.593-12.596L170,588.402l3.158,3.158c-0.095,0.341-0.158,0.693-0.158,1.064v2.999l-2,2.001h8.222  l3.374,3.375l1.404-1.4L183.993,599.593z"
   id="path1106" />
<g
   id="g1112">
	<g
   id="g1110">
		<path
   d="M183,628c-1.105,0-2,0.896-2,2s0.895,2,2,2c1.104,0,2-0.896,2-2S184.104,628,183,628z M171,628c-1.105,0-2,0.896-2,2    s0.895,2,2,2c1.104,0,2-0.896,2-2S172.104,628,171,628z M177,628c-1.105,0-2,0.896-2,2s0.895,2,2,2c1.104,0,2-0.896,2-2    S178.104,628,177,628z"
   id="path1108" />
	</g>
</g>
<path
   d="M183.143,667.974L177,662l-6.142,5.974c-0.477,0.464-0.477,1.216,0,1.679c0.477,0.464,1.249,0.464,1.726,0l4.417-4.296  l4.417,4.296c0.477,0.464,1.249,0.464,1.726,0C183.619,669.188,183.619,668.438,183.143,667.974z"
   id="path1114" />
<path
   d="M170.857,700.026L177,706l6.142-5.974c0.478-0.464,0.478-1.216,0-1.679c-0.477-0.463-1.249-0.463-1.726,0L177,702.644  l-4.417-4.296c-0.477-0.463-1.249-0.463-1.726,0C170.381,698.81,170.381,699.563,170.857,700.026z"
   id="path1116" />
<path
   d="M177,729c-4.971,0-9,4.029-9,9.001c0,4.971,4.029,8.999,9,8.999c4.971,0,9-4.028,9-8.999C186,733.029,181.971,729,177,729z   M178,743.001h-2v-6.002h2V743.001z M178,735h-2v-2h2V735z"
   id="path1118" />
<path
   d="M178,783v-2h2v2H178z M178,777h2v2h-2V777z M178,773h2v2h-2V773z M178,769h2v2h-2V769z M178,765h2v2h-2V765z M174,781h2v2  h-2V781z M174,777h2v2h-2V777z M174,773h2v2h-2V773z M174,769h2v2h-2V769z M174,765h2v2h-2V765z"
   id="path1120" />
<path
   d="M182.769,841.741c-0.308-0.321-0.808-0.321-1.116,0l-6.514,6.775l-2.791-2.903c-0.308-0.321-0.809-0.321-1.116,0  c-0.309,0.32-0.309,0.84,0,1.161l3.349,3.485c0.309,0.32,0.809,0.32,1.117,0l7.071-7.358  C183.077,842.581,183.077,842.062,182.769,841.741z"
   id="path1122" />
<path
   d="M220.5,837h-15c-0.828,0-1.5,0.672-1.5,1.5v15c0,0.828,0.672,1.5,1.5,1.5h15c0.828,0,1.5-0.672,1.5-1.5v-15  C222,837.672,221.328,837,220.5,837z M220,853.002h-14v-12h14V853.002z M210,844.002h-2v2h2V844.002z M218,844.002h-2v2h2V844.002z   M214,844.002h-2v2h2V844.002z M214,848.002h-2v2h2V848.002z M210,848.002h-2v2h2V848.002z M218,848.002h-2v2h2V848.002z"
   id="path1124" />
<path
   d="M217.787,807.22l-2.186,2.185l-2.009-2.009l2.186-2.183c-1.209-0.447-2.62-0.192-3.592,0.779  c-1.02,1.02-1.251,2.522-0.708,3.768L208,813.233l1.768,1.767l3.48-3.477c1.245,0.537,2.742,0.303,3.759-0.715  C217.979,809.838,218.234,808.429,217.787,807.22z"
   id="path1126" />
<path
   d="M214,777v-5.211c0.881-0.387,1.5-1.264,1.5-2.289c0-1.381-1.121-2.5-2.5-2.5c-1.383,0-2.5,1.119-2.5,2.5  c0,1.025,0.617,1.904,1.5,2.289V777h-3l4,4l4-4H214z"
   id="path1128" />
<path
   d="M212,735v5.211c-0.881,0.387-1.5,1.264-1.5,2.289c0,1.381,1.121,2.5,2.5,2.5c1.383,0,2.5-1.119,2.5-2.5  c0-1.025-0.617-1.904-1.5-2.289V735h3l-4-4l-4,4H212z"
   id="path1130" />
<path
   d="M220.681,695.711c-0.423-0.446-1.111-0.449-1.535,0l-8.449,8.907l-3.844-4.052c-0.424-0.447-1.111-0.447-1.534,0  c-0.425,0.447-0.426,1.172,0,1.617l4.604,4.858c0.214,0.224,0.494,0.334,0.774,0.333c0.28,0.001,0.56-0.109,0.773-0.333l9.211-9.713  C221.106,696.882,221.106,696.158,220.681,695.711z"
   id="path1132" />
<path
   style="fill:#FFFFFF;"
   d="M212,671h2v-6h-2V671z M212,661v2h2v-2H212z"
   id="path1134" />
<path
   d="M218.112,629.979l1.888-0.472c-0.185-0.869-0.529-1.678-0.997-2.396l-1.663,0.998l-1.447-1.448l0.998-1.663  c-0.72-0.468-1.528-0.812-2.397-0.997l-0.472,1.888h-2.045L211.505,624c-0.868,0.185-1.676,0.529-2.396,0.997l0.998,1.663  l-1.446,1.446l-1.663-0.998c-0.47,0.721-0.814,1.529-0.997,2.398l1.886,0.472v2.045L206,632.495  c0.184,0.869,0.527,1.676,0.996,2.396l1.664-0.998l1.446,1.446l-0.998,1.663c0.721,0.47,1.528,0.813,2.396,0.997l0.472-1.886h2.045  l0.472,1.886c0.869-0.184,1.678-0.527,2.397-0.997l-0.999-1.663l1.447-1.446l1.664,0.998c0.468-0.721,0.813-1.527,0.997-2.396  l-1.888-0.472V629.979z M212.999,633.046c-1.129,0-2.045-0.914-2.045-2.045c0-1.131,0.916-2.045,2.045-2.045  c1.13,0,2.045,0.914,2.045,2.045C215.044,632.132,214.129,633.046,212.999,633.046z"
   id="path1136" />
<path
   d="M215,588v-1h-4v1h-4v2h12v-2H215z M208,599.5c0,0.828,0.672,1.5,1.5,1.5h7c0.828,0,1.5-0.672,1.5-1.5V591h-10V599.5z   M214.25,593h1.5v6h-1.5V593z M210.25,593h1.5v6h-1.5V593z"
   id="path1138" />
<path
   id="path4237-4_1_"
   d="M256.974,695.857L251,702l5.974,6.142c0.464,0.478,1.216,0.478,1.679,0c0.463-0.477,0.463-1.249,0-1.726  L254.356,702l4.296-4.417c0.463-0.477,0.463-1.249,0-1.726C258.189,695.38,257.437,695.38,256.974,695.857z" />
<path
   id="path4237-4-1_1_"
   style="fill:#FFFFFF;"
   d="M256.974,729.357L251,735.5l5.974,6.142c0.464,0.478,1.216,0.478,1.679,0  c0.463-0.477,0.463-1.249,0-1.726l-4.297-4.416l4.296-4.417c0.463-0.477,0.463-1.249,0-1.726  C258.189,728.88,257.437,728.881,256.974,729.357z" />
<g
   id="g1148">
	<circle
   style="opacity:0.3;"
   cx="135.5"
   cy="296.5"
   r="12.5"
   id="circle1142" />
	<circle
   style="fill:#FFFFFF;"
   cx="135.5"
   cy="296.5"
   r="9.274"
   id="circle1144" />
	<path
   d="M134.29,301.742h2.419v-5.806h-2.419V301.742z M134.29,292.065V294h2.419v-1.935H134.29z"
   id="path1146" />
</g>
<g
   id="g1160">
	<g
   style="opacity:0.3;"
   id="g1152">
		<path
   d="M139.456,327.953c-2.176-3.824-5.736-3.824-7.912,0l-8.588,15.093C120.78,346.871,122.6,350,127,350h17    c4.4,0,6.22-3.129,4.044-6.953L139.456,327.953z"
   id="path1150" />
	</g>
	<g
   id="g1156">
		<path
   style="fill:#FFFFFF;"
   d="M136.462,329.124c-0.529-0.964-1.395-0.964-1.924,0l-8.653,15.77    c-0.529,0.964-0.062,1.753,1.038,1.753h17.154c1.1,0,1.567-0.789,1.038-1.753L136.462,329.124z"
   id="path1154" />
	</g>
	<path
   d="M136.917,334.182h-2.662v6.327h2.662V334.182z M136.917,344.727v-2.109h-2.662v2.109H136.917z"
   id="path1158" />
</g>
<g
   id="g1172">
	<g
   style="opacity:0.3;"
   id="g1164">
		<path
   d="M131.544,387.047c2.176,3.824,5.736,3.824,7.912,0l8.588-15.093C150.22,368.129,148.4,365,144,365h-17    c-4.4,0-6.22,3.129-4.044,6.953L131.544,387.047z"
   id="path1162" />
	</g>
	<g
   id="g1168">
		<path
   style="fill:#FFFFFF;"
   d="M134.538,385.876c0.529,0.964,1.395,0.964,1.924,0l8.653-15.77    c0.529-0.964,0.062-1.753-1.038-1.753h-17.154c-1.1,0-1.567,0.789-1.038,1.753L134.538,385.876z"
   id="path1166" />
	</g>
	<path
   d="M136.744,370.273h-2.662v6.327h2.662V370.273z M136.744,380.818v-2.109h-2.662v2.109H136.744z"
   id="path1170" />
</g>
<circle
   style="fill:#FFFFFF;"
   cx="177"
   cy="420"
   r="9"
   id="circle1174" />
<circle
   style="fill:#FFFFFF;"
   cx="87"
   cy="420"
   r="9"
   id="circle1176" />
<g
   id="g1182">
	<rect
   x="176"
   y="423"
   width="2"
   height="2"
   id="rect1178" />
	<rect
   x="176"
   y="415"
   width="2"
   height="6"
   id="rect1180" />
</g>
<circle
   style="fill:#FFFFFF;"
   cx="147"
   cy="420"
   r="9"
   id="circle1184" />
<g
   id="g1190">
	<rect
   x="146"
   y="415"
   width="2"
   height="2"
   id="rect1186" />
	<rect
   x="146"
   y="419"
   width="2"
   height="6"
   id="rect1188" />
</g>
<circle
   style="fill:#FFFFFF;"
   cx="117"
   cy="420"
   r="9"
   id="circle1192" />
<polygon
   style="fill:#FFFFFF;"
   points="214.778,422.728 210.222,415.272 207,410 203.778,415.272 199.222,422.728 196,428 218,428   "
   id="polygon1194" />
<polygon
   style="fill:#FFFFFF;"
   points="229.222,416.272 233.778,423.728 237,429 240.222,423.728 244.778,416.272 248,411 226,411   "
   id="polygon1196" />
<polygon
   style="fill:#FFFFFF;"
   points="270.728,411 263.272,411 258,416.272 258,423.728 263.272,429 270.728,429 276,423.728   276,416.272 "
   id="polygon1198" />
<g
   id="g1204">
	<rect
   x="206"
   y="424"
   width="2"
   height="2"
   id="rect1200" />
	<rect
   x="206"
   y="416"
   width="2"
   height="6"
   id="rect1202" />
</g>
<g
   id="g1210">
	<rect
   x="236"
   y="421"
   width="2"
   height="2"
   id="rect1206" />
	<rect
   x="236"
   y="413"
   width="2"
   height="6"
   id="rect1208" />
</g>
<polygon
   points="92.43,417.286 91.016,415.872 85.051,421.836 82.688,419.473 81.274,420.887 85.016,424.629 85.051,424.594   85.087,424.629 "
   id="polygon1212" />
<path
   d="M117.388,423c-0.059-0.131-0.12-0.292-0.18-0.481c-0.059-0.188-0.09-0.4-0.09-0.633c0-0.276,0.071-0.528,0.212-0.756  c0.142-0.228,0.32-0.447,0.535-0.659c0.214-0.211,0.446-0.423,0.694-0.634c0.247-0.211,0.478-0.453,0.693-0.727  c0.215-0.275,0.394-0.575,0.535-0.9c0.14-0.325,0.212-0.696,0.212-1.112c0-0.44-0.085-0.824-0.253-1.155  c-0.17-0.331-0.401-0.607-0.694-0.829c-0.293-0.224-0.637-0.391-1.029-0.506c-0.393-0.112-0.807-0.17-1.249-0.17  c-0.957,0-1.883,0.261-2.775,0.779v1.881c0.735-0.722,1.507-1.083,2.319-1.083c0.251,0,0.486,0.03,0.706,0.089  c0.22,0.062,0.416,0.151,0.587,0.273c0.172,0.123,0.307,0.276,0.405,0.455c0.098,0.184,0.146,0.396,0.146,0.639  c0,0.271-0.066,0.519-0.2,0.749c-0.134,0.228-0.3,0.444-0.497,0.65c-0.2,0.206-0.413,0.418-0.645,0.633  c-0.231,0.218-0.447,0.442-0.645,0.675c-0.198,0.232-0.365,0.483-0.497,0.753c-0.134,0.268-0.2,0.567-0.2,0.897  c0,0.214,0.018,0.427,0.057,0.643c0.038,0.218,0.082,0.395,0.131,0.53H117.388z M117.412,425.825  c0.229-0.206,0.342-0.461,0.342-0.765c0-0.309-0.113-0.563-0.342-0.764c-0.234-0.219-0.507-0.325-0.816-0.325  c-0.316,0-0.591,0.106-0.825,0.325c-0.229,0.2-0.342,0.455-0.342,0.764c0,0.304,0.113,0.559,0.342,0.765  c0.24,0.211,0.514,0.316,0.825,0.316C116.9,426.141,117.173,426.036,117.412,425.825L117.412,425.825z"
   id="path1214" />
<circle
   cx="177"
   cy="452"
   r="9"
   id="circle1216" />
<circle
   cx="87"
   cy="452"
   r="9"
   id="circle1218" />
<g
   id="g1224">
	<rect
   x="176"
   y="455"
   style="fill:#FFFFFF;"
   width="2"
   height="2"
   id="rect1220" />
	<rect
   x="176"
   y="447"
   style="fill:#FFFFFF;"
   width="2"
   height="6"
   id="rect1222" />
</g>
<circle
   cx="147"
   cy="452"
   r="9"
   id="circle1226" />
<g
   id="g1232">
	<rect
   x="146"
   y="447"
   style="fill:#FFFFFF;"
   width="2"
   height="2"
   id="rect1228" />
	<rect
   x="146"
   y="451"
   style="fill:#FFFFFF;"
   width="2"
   height="6"
   id="rect1230" />
</g>
<circle
   cx="117"
   cy="452"
   r="9"
   id="circle1234" />
<polygon
   points="214.778,454.728 210.222,447.272 207,442 203.778,447.272 199.222,454.728 196,460 218,460 "
   id="polygon1236" />
<polygon
   points="229.222,448.272 233.778,455.728 237,461 240.222,455.728 244.778,448.272 248,443 226,443 "
   id="polygon1238" />
<polygon
   points="270.728,443 263.272,443 258,448.272 258,455.728 263.272,461 270.728,461 276,455.728 276,448.272 "
   id="polygon1240" />
<g
   id="g1246">
	<rect
   x="206"
   y="456"
   style="fill:#FFFFFF;"
   width="2"
   height="2"
   id="rect1242" />
	<rect
   x="206"
   y="448"
   style="fill:#FFFFFF;"
   width="2"
   height="6"
   id="rect1244" />
</g>
<g
   id="g1252">
	<rect
   x="236"
   y="453"
   style="fill:#FFFFFF;"
   width="2"
   height="2"
   id="rect1248" />
	<rect
   x="236"
   y="445"
   style="fill:#FFFFFF;"
   width="2"
   height="6"
   id="rect1250" />
</g>
<polygon
   style="fill:#FFFFFF;"
   points="92.43,449.286 91.016,447.872 85.051,453.836 82.688,451.473 81.274,452.887 85.016,456.629   85.051,456.594 85.087,456.629 "
   id="polygon1254" />
<path
   style="fill:#FFFFFF;"
   d="M117.388,455c-0.059-0.131-0.12-0.292-0.18-0.481c-0.059-0.188-0.09-0.4-0.09-0.633  c0-0.276,0.071-0.528,0.212-0.756c0.142-0.228,0.32-0.447,0.535-0.659c0.214-0.211,0.446-0.423,0.694-0.634  c0.247-0.211,0.478-0.453,0.693-0.727c0.215-0.275,0.394-0.575,0.535-0.9c0.14-0.325,0.212-0.696,0.212-1.112  c0-0.44-0.085-0.824-0.253-1.155c-0.17-0.331-0.401-0.607-0.694-0.829c-0.293-0.224-0.637-0.391-1.029-0.506  c-0.393-0.112-0.807-0.17-1.249-0.17c-0.957,0-1.883,0.261-2.775,0.779v1.881c0.735-0.722,1.507-1.083,2.319-1.083  c0.251,0,0.486,0.03,0.706,0.089c0.22,0.062,0.416,0.151,0.587,0.273c0.172,0.123,0.307,0.276,0.405,0.455  c0.098,0.184,0.146,0.396,0.146,0.639c0,0.271-0.066,0.519-0.2,0.749c-0.134,0.228-0.3,0.444-0.497,0.65  c-0.2,0.206-0.413,0.418-0.645,0.633c-0.231,0.218-0.447,0.442-0.645,0.675c-0.198,0.232-0.365,0.483-0.497,0.753  c-0.134,0.268-0.2,0.567-0.2,0.897c0,0.214,0.018,0.427,0.057,0.643c0.038,0.218,0.082,0.395,0.131,0.53H117.388z M117.412,457.825  c0.229-0.206,0.342-0.461,0.342-0.765c0-0.309-0.113-0.563-0.342-0.764c-0.234-0.219-0.507-0.325-0.816-0.325  c-0.316,0-0.591,0.106-0.825,0.325c-0.229,0.2-0.342,0.455-0.342,0.764c0,0.304,0.113,0.559,0.342,0.765  c0.24,0.211,0.514,0.316,0.825,0.316C116.9,458.141,117.173,458.036,117.412,457.825L117.412,457.825z"
   id="path1256" />
<rect
   x="262"
   y="419"
   width="10"
   height="3"
   id="rect1258" />
<rect
   x="262"
   y="451"
   style="fill:#FFFFFF;"
   width="10"
   height="3"
   id="rect1260" />
<path
   d="M60.889,193.232l-2.01,2.01l-2.121-2.121l2.01-2.01C58.521,191.046,58.267,191,58,191c-1.657,0-3,1.343-3,3  c0,0.267,0.046,0.522,0.111,0.768l-4.345,4.344C50.521,199.045,50.267,199,50,199c-1.657,0-3,1.343-3,3  c0,0.268,0.046,0.522,0.111,0.768l2.01-2.01l2.121,2.121l-2.01,2.01C49.479,204.954,49.733,205,50,205c1.657,0,3-1.343,3-3  c0-0.267-0.045-0.521-0.111-0.768l4.346-4.344C57.479,196.955,57.733,197,58,197c1.657,0,3-1.343,3-3  C61,193.732,60.954,193.479,60.889,193.232z"
   id="path1262" />
<path
   d="M47,372v2h14v-2H47z M47,379h14v-2H47V379z M47,384h14v-2H47V384z"
   id="path1264" />
<path
   d="M54.697,409.253c0.181,0.223,0.48,0.333,0.897,0.333c0.444,0,0.79-0.157,1.036-0.47c0.245-0.313,0.369-0.661,0.369-1.047  c0-0.316-0.103-0.572-0.308-0.771C56.487,407.1,56.206,407,55.851,407c-0.417,0-0.76,0.138-1.027,0.416  c-0.267,0.278-0.4,0.612-0.4,1.003C54.425,408.755,54.516,409.033,54.697,409.253z M51.348,414.171  c0.931-0.606,1.524-0.909,1.785-0.909c0.156,0,0.236,0.088,0.236,0.265c0,0.359-0.287,1.554-0.862,3.581  c-0.258,0.908-0.429,1.549-0.507,1.918c-0.079,0.367-0.118,0.699-0.118,0.99c0,0.29,0.064,0.526,0.196,0.71  c0.129,0.184,0.328,0.274,0.594,0.274c0.211,0,0.461-0.051,0.744-0.15c0.283-0.101,0.757-0.355,1.421-0.762  c0.663-0.407,1.233-0.769,1.713-1.084l0.041-0.124l-0.226-0.377l-0.123-0.011c-0.891,0.586-1.437,0.882-1.643,0.882  c-0.075,0-0.143-0.034-0.2-0.101c-0.058-0.067-0.086-0.145-0.086-0.233c0-0.321,0.296-1.499,0.893-3.531  c0.34-1.183,0.565-1.982,0.672-2.406c0.106-0.424,0.159-0.773,0.159-1.052c0-0.209-0.062-0.38-0.185-0.517  c-0.123-0.137-0.271-0.202-0.441-0.202c-0.377,0-0.901,0.179-1.576,0.537c-0.674,0.362-1.613,0.974-2.816,1.839L51,413.831  l0.204,0.331L51.348,414.171z"
   id="path1266" />
<g
   id="g1272">
	<polygon
   points="61,227 55.628,227 57.632,229.005 55,231.638 56.362,233 58.994,230.368 61,232.374  "
   id="polygon1268" />
	<polygon
   points="51.638,235 49.006,237.633 47,235.627 47,241 52.373,241 50.368,238.995 53,236.363  "
   id="polygon1270" />
</g>
<g
   id="g1278">
	<polygon
   points="61,264.362 59.638,263 57.006,265.632 55,263.626 55,269 60.372,269 58.368,266.995  "
   id="polygon1274" />
	<polygon
   points="49.632,273.005 47,275.637 48.362,277 50.994,274.367 53,276.373 53,271 47.627,271  "
   id="polygon1276" />
</g>
<path
   style="fill:#FFFFFF;"
   d="M22.761,452.125c-0.816,1.833-2.625,3.125-4.761,3.125c-2.899,0-5.25-2.35-5.25-5.25  c0-2.898,2.351-5.25,5.25-5.25c1.451,0,2.747,0.604,3.693,1.558l0,0.001l-2.82,2.818L25,449.125V443l-2.058,2.057  c-0.001-0.001-0.013,0.01-0.016,0.01C21.662,443.802,19.932,443,18,443c-3.865,0-7,3.135-7,7c0,3.867,3.135,7,7,7  c3.122,0,5.737-2.054,6.64-4.875H22.761z"
   id="path1280" />
<path
   d="M58.761,452.125c-0.816,1.833-2.625,3.125-4.761,3.125c-2.899,0-5.25-2.35-5.25-5.25c0-2.898,2.351-5.25,5.25-5.25  c1.451,0,2.747,0.604,3.693,1.558l0,0.001l-2.82,2.818L61,449.125V443l-2.058,2.057c-0.002-0.001-0.013,0.01-0.016,0.01  C57.662,443.802,55.932,443,54,443c-3.865,0-7,3.135-7,7c0,3.867,3.135,7,7,7c3.122,0,5.737-2.054,6.64-4.875H58.761z"
   id="path1282" />
<g
   id="g1286">
	<path
   d="M54,301.45l1.188,2.657l0.228,0.51l0.554,0.073l2.874,0.381l-2.147,2.118l-0.376,0.371l0.094,0.52l0.54,2.972l-2.455-1.42   L54,309.342l-0.501,0.29l-2.455,1.42l0.54-2.972l0.094-0.52l-0.376-0.371l-2.147-2.118l2.874-0.381l0.554-0.073l0.228-0.51   L54,301.45 M54,299l-2.101,4.699L47,304.349l3.601,3.553L49.674,313L54,310.497L58.326,313l-0.927-5.099L61,304.349l-4.899-0.649   L54,299L54,299z"
   id="path1284" />
</g>
<g
   id="g1294">
	<polygon
   style="fill:#F3A914;"
   points="54,343.919 50.359,346.026 51.14,341.73 48.078,338.71 52.241,338.158 54,334.225    55.759,338.158 59.922,338.71 56.86,341.73 57.641,346.026  "
   id="polygon1288" />
	<g
   id="g1292">
		<path
   style="fill:#F3A914;"
   d="M54,335.45l1.188,2.657l0.228,0.51l0.554,0.073l2.874,0.381l-2.147,2.118l-0.376,0.371l0.094,0.52    l0.54,2.972l-2.455-1.42L54,343.342l-0.501,0.29l-2.455,1.42l0.54-2.972l0.094-0.52l-0.376-0.371l-2.147-2.118l2.874-0.381    l0.554-0.073l0.228-0.51L54,335.45 M54,333l-2.101,4.699L47,338.349l3.601,3.553L49.674,347L54,344.497L58.326,347l-0.927-5.099    L61,338.349l-4.899-0.649L54,333L54,333z"
   id="path1290" />
	</g>
</g>
<g
   id="g1304">
	<path
   style="fill:#FFFFFF;"
   d="M334,486c0-1.476-0.81-2.745-1.999-3.435v6.871C333.19,488.745,334,487.476,334,486z"
   id="path1296" />
	<g
   id="g1302">
		<polygon
   style="fill:#FFFFFF;"
   points="323,483.375 323,488.625 325.557,488.625 330,493 330,479 325.557,483.375   "
   id="polygon1298" />
		<path
   style="fill:#FFFFFF;"
   d="M332.001,479.306v1.58c2.046,0.8,3.499,2.782,3.499,5.114c0,2.328-1.453,4.313-3.499,5.113v1.58    c2.888-0.86,4.999-3.525,4.999-6.693C337,482.83,334.889,480.166,332.001,479.306z"
   id="path1300" />
	</g>
</g>
<path
   style="fill:#FFFFFF;"
   d="M335.5,522c0,0.393-0.055,0.769-0.134,1.139l1.216,1.216c0.266-0.736,0.418-1.525,0.418-2.354  c0-3.17-2.111-5.834-4.998-6.694v1.58C334.047,517.685,335.5,519.668,335.5,522z M332.002,518.565v1.21l1.981,1.982  C333.899,520.386,333.124,519.216,332.002,518.565z M336.7,527.301l-12.01-12.011l-1.407,1.406l2.478,2.478l-0.204,0.201H323v5.25  h2.557L330,529v-5.586l2.002,2.002v0.019c0.004-0.002,0.008-0.006,0.012-0.008l1.087,1.087c-0.343,0.235-0.706,0.444-1.099,0.599  v1.58c0.795-0.237,1.522-0.622,2.172-1.106l1.129,1.13l1.414-1.414l-0.01-0.011L336.7,527.301z M330,515l-1.397,1.375l1.397,1.398  V515z"
   id="path1306" />
<path
   style="fill:#FFFFFF;"
   d="M330,565c1.105,0,2-0.896,2-2h-4C328,564.104,328.896,565,330,565z M334,559.625v-3  c0-1.861-1.278-3.412-3-3.858V552c0-0.553-0.447-1-1-1s-1,0.447-1,1v0.767c-1.722,0.446-2.999,1.997-2.999,3.858v2.999L324,561.625  h12L334,559.625z"
   id="path1308" />
<path
   style="fill:#FFFFFF;"
   d="M334,592.625c0-1.861-1.279-3.412-3-3.858V588c0-0.553-0.447-1-1-1s-1,0.447-1,1v0.767  c-0.012,0.003-0.022,0.008-0.033,0.011l5.033,5.033V592.625z M330,601c1.105,0,2-0.896,2-2h-4C328,600.104,328.896,601,330,601z   M336.993,599.593l-0.007,0.008l-12.593-12.596L323,588.402l3.158,3.158c-0.095,0.341-0.158,0.693-0.158,1.064v2.999l-2,2.001h8.222  l3.374,3.375l1.404-1.4L336.993,599.593z"
   id="path1310" />
<g
   id="g1316">
	<g
   id="g1314">
		<path
   style="fill:#FFFFFF;"
   d="M336,628c-1.104,0-2,0.896-2,2s0.896,2,2,2s2-0.896,2-2S337.104,628,336,628z M324,628    c-1.104,0-2,0.896-2,2s0.896,2,2,2s2-0.896,2-2S325.104,628,324,628z M330,628c-1.104,0-2,0.896-2,2s0.896,2,2,2s2-0.896,2-2    S331.104,628,330,628z"
   id="path1312" />
	</g>
</g>
<path
   style="fill:#FFFFFF;"
   d="M336.143,667.974L330,662l-6.142,5.974c-0.478,0.464-0.478,1.216,0,1.679  c0.477,0.464,1.249,0.464,1.726,0l4.417-4.296l4.417,4.296c0.477,0.464,1.249,0.464,1.726,0  C336.619,669.188,336.619,668.438,336.143,667.974z"
   id="path1318" />
<path
   style="fill:#FFFFFF;"
   d="M323.857,700.026L330,706l6.142-5.974c0.478-0.464,0.478-1.216,0-1.679  c-0.477-0.463-1.249-0.463-1.726,0L330,702.644l-4.417-4.296c-0.477-0.463-1.249-0.463-1.726,0  C323.381,698.81,323.381,699.563,323.857,700.026z"
   id="path1320" />
<path
   style="fill:#FFFFFF;"
   d="M330,729c-4.971,0-9,4.029-9,9.001c0,4.971,4.029,8.999,9,8.999c4.971,0,9-4.028,9-8.999  C339,733.029,334.971,729,330,729z M331,743.001h-2v-6.002h2V743.001z M331,735h-2v-2h2V735z"
   id="path1322" />
<path
   style="fill:#FFFFFF;"
   d="M331,783v-2h2v2H331z M331,777h2v2h-2V777z M331,773h2v2h-2V773z M331,769h2v2h-2V769z M331,765h2v2  h-2V765z M327,781h2v2h-2V781z M327,777h2v2h-2V777z M327,773h2v2h-2V773z M327,769h2v2h-2V769z M327,765h2v2h-2V765z"
   id="path1324" />
<path
   style="fill:#FFFFFF;"
   d="M335.769,841.741c-0.308-0.321-0.808-0.321-1.116,0l-6.514,6.775l-2.791-2.903  c-0.308-0.321-0.809-0.321-1.116,0c-0.309,0.32-0.309,0.84,0,1.161l3.349,3.485c0.309,0.32,0.809,0.32,1.117,0l7.071-7.358  C336.077,842.581,336.077,842.062,335.769,841.741z"
   id="path1326" />
<path
   style="fill:#FFFFFF;"
   d="M373.5,837h-15c-0.828,0-1.5,0.672-1.5,1.5v15c0,0.828,0.672,1.5,1.5,1.5h15  c0.828,0,1.5-0.672,1.5-1.5v-15C375,837.672,374.328,837,373.5,837z M373,853.002h-14v-12h14V853.002z M363,844.002h-2v2h2V844.002z   M371,844.002h-2v2h2V844.002z M367,844.002h-2v2h2V844.002z M367,848.002h-2v2h2V848.002z M363,848.002h-2v2h2V848.002z   M371,848.002h-2v2h2V848.002z"
   id="path1328" />
<path
   style="fill:#FFFFFF;"
   d="M370.787,807.22l-2.186,2.185l-2.009-2.009l2.185-2.183c-1.209-0.447-2.62-0.192-3.592,0.779  c-1.02,1.02-1.251,2.522-0.708,3.768L361,813.233l1.768,1.767l3.48-3.477c1.245,0.537,2.742,0.303,3.759-0.715  C370.979,809.838,371.234,808.429,370.787,807.22z"
   id="path1330" />
<path
   style="fill:#FFFFFF;"
   d="M367,777v-5.211c0.881-0.387,1.5-1.264,1.5-2.289c0-1.381-1.121-2.5-2.5-2.5  c-1.383,0-2.5,1.119-2.5,2.5c0,1.025,0.617,1.904,1.5,2.289V777h-3l4,4l4-4H367z"
   id="path1332" />
<path
   style="fill:#FFFFFF;"
   d="M365,735v5.211c-0.881,0.387-1.5,1.264-1.5,2.289c0,1.381,1.121,2.5,2.5,2.5  c1.383,0,2.5-1.119,2.5-2.5c0-1.025-0.617-1.904-1.5-2.289V735h3l-4-4l-4,4H365z"
   id="path1334" />
<path
   style="fill:#FFFFFF;"
   d="M373.681,695.711c-0.423-0.446-1.111-0.449-1.535,0l-8.449,8.907l-3.844-4.052  c-0.424-0.447-1.111-0.447-1.534,0c-0.425,0.447-0.426,1.172-0.001,1.617l4.605,4.858c0.214,0.224,0.494,0.334,0.774,0.333  c0.28,0.001,0.56-0.109,0.773-0.333l9.21-9.713C374.106,696.882,374.106,696.158,373.681,695.711z"
   id="path1336" />
<path
   d="M365,671h2v-6h-2V671z M365,661v2h2v-2H365z"
   id="path1338" />
<path
   style="fill:#FFFFFF;"
   d="M371.112,629.979l1.888-0.472c-0.185-0.869-0.529-1.678-0.997-2.396l-1.663,0.998l-1.447-1.448  l0.998-1.663c-0.72-0.468-1.528-0.812-2.397-0.997l-0.472,1.888h-2.045L364.505,624c-0.868,0.185-1.676,0.529-2.396,0.997  l0.998,1.663l-1.446,1.446l-1.663-0.998c-0.47,0.721-0.814,1.529-0.997,2.398l1.886,0.472v2.045L359,632.495  c0.184,0.869,0.527,1.676,0.996,2.396l1.664-0.998l1.446,1.446l-0.998,1.663c0.721,0.47,1.528,0.813,2.396,0.997l0.472-1.886h2.045  l0.472,1.886c0.869-0.184,1.678-0.527,2.397-0.997l-0.999-1.663l1.447-1.446l1.664,0.998c0.468-0.721,0.813-1.527,0.997-2.396  l-1.888-0.472V629.979z M365.999,633.046c-1.129,0-2.045-0.914-2.045-2.045c0-1.131,0.916-2.045,2.045-2.045  c1.13,0,2.045,0.914,2.045,2.045C368.044,632.132,367.129,633.046,365.999,633.046z"
   id="path1340" />
<path
   style="fill:#FFFFFF;"
   d="M368,588v-1h-4v1h-4v2h12v-2H368z M361,599.5c0,0.828,0.672,1.5,1.5,1.5h7c0.828,0,1.5-0.672,1.5-1.5  V591h-10V599.5z M367.25,593h1.5v6h-1.5V593z M363.25,593h1.5v6h-1.5V593z"
   id="path1342" />
<path
   id="path4237-4_2_"
   style="fill:#FFFFFF;"
   d="M409.974,695.857L404,702l5.974,6.142c0.464,0.478,1.216,0.478,1.679,0  c0.463-0.477,0.463-1.249,0-1.726L407.356,702l4.296-4.417c0.463-0.477,0.463-1.249,0-1.726  C411.189,695.38,410.437,695.38,409.974,695.857z" />
<path
   id="path4237-4-1_2_"
   d="M409.974,729.357L404,735.5l5.974,6.142c0.464,0.478,1.216,0.478,1.679,0  c0.463-0.477,0.463-1.249,0-1.726l-4.297-4.416l4.296-4.417c0.463-0.477,0.463-1.249,0-1.726  C411.189,728.88,410.437,728.881,409.974,729.357z" />
<g
   id="g1352">
	<circle
   style="opacity:0.3;"
   cx="135.5"
   cy="256.5"
   r="12.5"
   id="circle1346" />
	<circle
   style="fill:#FFFFFF;"
   cx="135.5"
   cy="256.5"
   r="9.274"
   id="circle1348" />
	<path
   d="M141.618,252.741c-0.308-0.321-0.808-0.321-1.116,0l-6.514,6.775l-2.791-2.903c-0.308-0.321-0.809-0.321-1.116,0   c-0.309,0.32-0.309,0.84,0,1.161l3.349,3.485c0.309,0.32,0.809,0.32,1.117,0l7.071-7.357   C141.927,253.581,141.927,253.062,141.618,252.741z"
   id="path1350" />
</g>
<path
   id="path4209"
   style="fill:#768D99;"
   d="M52.875,565.125h2v-14h-2V565.125z M46.875,559.125h14v-2h-14V559.125z" />
<g
   id="g4365">
	<g
   id="g4367">
		<path
   id="path4369"
   style="fill:#768D99;"
   d="M55,524.25h-5.625v1.375H55V524.25z M55,521.125h-5.625v1.375H55V521.125z     M50.25,515.125v2.75h-3.375v11H57.5v-2.75h3.375v-11H50.25z M55.875,527.198H48.5V519.5h7.375V527.198z M59.191,524.448H57.5    v-6.573h-5.625v-0.897h7.316V524.448z" />
	</g>
</g>
<g
   id="g4375">
	<path
   id="path4377"
   style="fill:#768D99;"
   d="M57.268,480.449l1.646,1.637l-5.789,5.789l-1.644-1.638L57.268,480.449z    M60.649,479.248l-0.379-0.37c-0.394-0.395-1.035-0.395-1.43,0l-0.977,0.977l1.646,1.638l1.14-1.14   C60.955,480.047,60.955,479.554,60.649,479.248 M50.007,489.172c-0.042,0.186,0.127,0.354,0.314,0.309l2.105-1.081l-1.565-1.543   L50.007,489.172z" />
</g>
<g
   id="g4383">
	<rect
   id="rect4385"
   x="46.875"
   y="490.75"
   style="fill:#768D99;"
   width="14"
   height="2" />
</g>
<path
   id="path4209_1_"
   d="M211.875,565.125h2v-14h-2V565.125z M205.875,559.125h14v-2h-14V559.125z" />
<g
   id="g4365_1_">
	<g
   id="g4367_1_">
		<path
   id="path4369_1_"
   d="M214,524.25h-5.625v1.375H214V524.25z M214,521.125h-5.625v1.375H214V521.125z M209.25,515.125v2.75    h-3.375v11H216.5v-2.75h3.375v-11H209.25z M214.875,527.198H207.5V519.5h7.375V527.198z M218.191,524.448H216.5v-6.573h-5.625    v-0.897h7.316V524.448z" />
	</g>
</g>
<g
   id="g4375_1_">
	<path
   id="path4377_1_"
   d="M216.268,480.449l1.646,1.637l-5.789,5.789l-1.644-1.638L216.268,480.449z M219.649,479.248l-0.379-0.37   c-0.394-0.395-1.035-0.395-1.43,0l-0.977,0.977l1.646,1.638l1.14-1.14C219.955,480.047,219.955,479.554,219.649,479.248    M209.007,489.172c-0.042,0.186,0.127,0.354,0.314,0.309l2.105-1.081l-1.565-1.543L209.007,489.172z" />
</g>
<g
   id="g4383_1_">
	<rect
   id="rect4385_1_"
   x="205.875"
   y="490.75"
   width="14"
   height="2" />
</g>
<path
   id="path4209_2_"
   style="fill:#FFFFFF;"
   d="M364.875,565.125h2v-14h-2V565.125z M358.875,559.125h14v-2h-14V559.125z" />
<g
   id="g4365_2_">
	<g
   id="g4367_2_">
		<path
   id="path4369_2_"
   style="fill:#FFFFFF;"
   d="M367,524.25h-5.625v1.375H367V524.25z M367,521.125h-5.625v1.375H367V521.125z     M362.25,515.125v2.75h-3.375v11H369.5v-2.75h3.375v-11H362.25z M367.875,527.198H360.5V519.5h7.375V527.198z M371.191,524.448    H369.5v-6.573h-5.625v-0.897h7.316V524.448z" />
	</g>
</g>
<g
   id="g4375_2_">
	<path
   id="path4377_2_"
   style="fill:#FFFFFF;"
   d="M369.268,480.449l1.646,1.637l-5.789,5.789l-1.644-1.638L369.268,480.449z    M372.649,479.248l-0.379-0.37c-0.394-0.395-1.035-0.395-1.43,0l-0.977,0.977l1.646,1.638l1.14-1.14   C372.955,480.047,372.955,479.554,372.649,479.248 M362.007,489.172c-0.042,0.186,0.127,0.354,0.314,0.309l2.105-1.081   l-1.565-1.543L362.007,489.172z" />
</g>
<g
   id="g4383_2_">
	<rect
   id="rect4385_2_"
   x="358.875"
   y="490.75"
   style="fill:#FFFFFF;"
   width="14"
   height="2" />
</g>
<g
   id="g1386">
	<polygon
   points="91.628,227 93.632,229.005 91,231.638 92.362,233 94.994,230.368 97,232.374 97,227  "
   id="polygon1378" />
	<polygon
   points="87.638,235 85.006,237.633 83,235.627 83,241 88.373,241 86.368,238.995 89,236.363  "
   id="polygon1380" />
	<polygon
   points="88.374,227 83,227 83,232.372 85.005,230.368 87.638,233 89,231.638 86.368,229.006  "
   id="polygon1382" />
	<polygon
   points="92.363,235 91,236.362 93.633,238.994 91.627,241 97,241 97,235.627 94.995,237.632  "
   id="polygon1384" />
</g>
<g
   id="g1396">
	<polygon
   style="fill:#FFFFFF;"
   points="91.628,263 93.632,265.005 91,267.638 92.362,269 94.994,266.368 97,268.374 97,263  "
   id="polygon1388" />
	<polygon
   style="fill:#FFFFFF;"
   points="87.638,271 85.006,273.633 83,271.627 83,277 88.373,277 86.368,274.995 89,272.363  "
   id="polygon1390" />
	<polygon
   style="fill:#FFFFFF;"
   points="88.374,263 83,263 83,268.372 85.005,266.368 87.638,269 89,267.638 86.368,265.006  "
   id="polygon1392" />
	<polygon
   style="fill:#FFFFFF;"
   points="92.363,271 91,272.362 93.633,274.994 91.627,277 97,277 97,271.627 94.995,273.632  "
   id="polygon1394" />
</g>
<g
   id="Shape_7_">
	<path
   style="fill:#FFFFFF;"
   d="M99,587c-3.85,0-7,3.15-7,7s3.15,7,7,7c3.85,0,7-3.15,7-7S102.85,587,99,587L99,587z M99,599.6   c-3.08,0-5.6-2.52-5.6-5.6s2.52-5.6,5.6-5.6c3.08,0,5.6,2.52,5.6,5.6S102.08,599.6,99,599.6z M99.35,590.5H98.3v4.2l3.64,2.24   l0.56-0.91l-3.15-1.89V590.5z"
   id="path1398" />
</g>
<g
   id="Shape_4_">
	<path
   style="fill:#FFFFFF;"
   d="M411,587c-3.85,0-7,3.15-7,7s3.15,7,7,7s7-3.15,7-7S414.85,587,411,587L411,587z M411,599.6   c-3.08,0-5.6-2.52-5.6-5.6s2.52-5.6,5.6-5.6c3.08,0,5.6,2.52,5.6,5.6S414.08,599.6,411,599.6z M411.35,590.5h-1.05v4.2l3.64,2.24   l0.56-0.91l-3.15-1.89V590.5z"
   id="path1401" />
</g>
<g
   id="Shape_2_">
	<path
   d="M258,587c-3.85,0-7,3.15-7,7s3.15,7,7,7c3.85,0,7-3.15,7-7S261.85,587,258,587L258,587z M258,599.6   c-3.08,0-5.6-2.52-5.6-5.6s2.52-5.6,5.6-5.6c3.08,0,5.6,2.52,5.6,5.6S261.08,599.6,258,599.6z M258.35,590.5h-1.05v4.2l3.64,2.24   l0.56-0.91l-3.15-1.89V590.5z"
   id="path1404" />
</g>
<path
   style="fill:#FFFFFF;"
   d="M258.212,52.555c-0.026-2.236-1.852-4.184-4.382-4.509c-2.794-0.359-5.38,1.393-5.778,3.912  c-0.032,0.201-0.043,0.4-0.045,0.598L248,52.548v3.117c0,0.754,0.684,1.371,1.52,1.371h1.52v-3.354h-1.761v-1.129h0.001  c0.002-0.143,0.012-0.287,0.035-0.432c0.298-1.89,2.238-3.203,4.333-2.934c1.909,0.245,3.272,1.723,3.276,3.414h0.004v1.081h-1.753  v3.354h1.52c0.033,0,0.064-0.007,0.097-0.009c-0.106,0.335-0.289,0.655-0.567,0.93c-0.299,0.296-0.666,0.494-1.057,0.617  c-0.175-0.225-0.45-0.381-0.776-0.381h-0.578c-0.531,0-0.966,0.392-0.966,0.871s0.435,0.871,0.966,0.871h0.578  c0.412,0,0.76-0.238,0.898-0.568c0.588-0.155,1.14-0.439,1.584-0.878c0.539-0.533,0.829-1.188,0.893-1.855  c0.277-0.249,0.449-0.592,0.449-0.97v-3.117L258.212,52.555z"
   id="path1407" />
<path
   d="M258.212,88.62c-0.026-2.236-1.852-4.184-4.382-4.509c-2.794-0.359-5.38,1.393-5.778,3.912  c-0.032,0.201-0.043,0.4-0.045,0.598L248,88.612v3.117c0,0.754,0.684,1.371,1.52,1.371h1.52v-3.354h-1.761v-1.129h0.001  c0.002-0.143,0.012-0.287,0.035-0.432c0.298-1.89,2.238-3.203,4.333-2.934c1.909,0.245,3.272,1.723,3.276,3.414h0.004v1.081h-1.753  v3.354h1.52c0.033,0,0.064-0.007,0.097-0.009c-0.106,0.335-0.289,0.655-0.567,0.93c-0.299,0.296-0.666,0.494-1.057,0.617  c-0.175-0.225-0.45-0.381-0.776-0.381h-0.578c-0.531,0-0.966,0.392-0.966,0.871S253.283,96,253.815,96h0.578  c0.412,0,0.76-0.238,0.898-0.568c0.588-0.155,1.14-0.439,1.584-0.878c0.539-0.533,0.829-1.188,0.893-1.855  c0.277-0.249,0.449-0.592,0.449-0.97v-3.117L258.212,88.62z"
   id="path1409" />
<path
   style="fill:#3C5563;"
   d="M258.212,16.556c-0.026-2.236-1.852-4.184-4.382-4.509c-2.794-0.359-5.38,1.393-5.778,3.912  c-0.032,0.201-0.043,0.4-0.045,0.598L248,16.548v3.117c0,0.754,0.684,1.371,1.52,1.371h1.52v-3.354h-1.761v-1.129h0.001  c0.002-0.143,0.012-0.287,0.035-0.432c0.298-1.89,2.238-3.203,4.333-2.934c1.909,0.245,3.272,1.723,3.276,3.414h0.004v1.081h-1.753  v3.354h1.52c0.033,0,0.064-0.007,0.097-0.009c-0.106,0.335-0.289,0.655-0.567,0.93c-0.299,0.296-0.666,0.494-1.057,0.617  c-0.175-0.225-0.45-0.381-0.776-0.381h-0.578c-0.531,0-0.966,0.392-0.966,0.871s0.435,0.871,0.966,0.871h0.578  c0.412,0,0.76-0.238,0.898-0.568c0.588-0.155,1.14-0.439,1.584-0.878c0.539-0.533,0.829-1.188,0.893-1.855  c0.277-0.249,0.449-0.592,0.449-0.97v-3.117L258.212,16.556z"
   id="path1411" />
<g
   id="g1431">
	<circle
   style="fill:#FFFFFF;"
   cx="207"
   cy="364.834"
   r="8"
   id="circle1413" />
	<polygon
   points="212.392,362.01 210.978,360.596 205.014,366.56 202.65,364.197 201.236,365.611 204.978,369.353 205.014,369.318    205.049,369.353  "
   id="polygon1415" />
	<path
   style="fill:#FFFFFF;"
   d="M266,362.037c0,0.825-0.675,1.501-1.501,1.501h-9.278c-1.206,0-3.524,1.953-5.221,4.293v-14.792   c0-0.825,0.675-1.501,1.501-1.501h12.999c0.825,0,1.501,0.675,1.501,1.501V362.037z"
   id="path1417" />
	<path
   d="M260.043,354.27l-2.722,2.755l-2.755,2.722c-0.314,0.316-0.301,0.816,0.027,1.116c0.328,0.301,0.847,0.288,1.161-0.028   l1.867-1.848l0.008,0.008l0.827-0.835l0.835-0.827l-0.008-0.008l1.848-1.867c0.316-0.314,0.329-0.833,0.028-1.161   C260.859,353.969,260.359,353.957,260.043,354.27z"
   id="path1419" />
	<path
   d="M261.149,359.748l-2.755-2.722l-2.722-2.755c-0.316-0.314-0.816-0.301-1.116,0.027c-0.301,0.328-0.288,0.847,0.028,1.161   l1.848,1.867l-0.008,0.008l0.835,0.827l0.827,0.835l0.008-0.008l1.867,1.848c0.314,0.316,0.833,0.329,1.161,0.028   C261.45,360.564,261.463,360.064,261.149,359.748z"
   id="path1421" />
	<path
   style="fill:#FFFFFF;"
   d="M233,372L233,372c0-0.552,0.448-1,1-1h6c0.552,0,1,0.448,1,1l0,0c0,0.552-0.448,1-1,1h-6   C233.448,373,233,372.552,233,372z"
   id="path1423" />
	<g
   id="g1429">
		<path
   style="fill:#FFFFFF;"
   d="M225.922,372.707L225.922,372.707c-0.391-0.391-0.391-1.024,0-1.414l4.243-4.243    c0.391-0.391,1.024-0.391,1.414,0l0,0c0.391,0.391,0.391,1.024,0,1.414l-4.243,4.243    C226.945,373.098,226.312,373.098,225.922,372.707z"
   id="path1425" />
		<path
   style="fill:#FFFFFF;"
   d="M225.922,362.795L225.922,362.795c-0.391,0.391-0.391,1.024,0,1.414l4.243,4.243    c0.391,0.391,1.024,0.391,1.414,0l0,0c0.391-0.391,0.391-1.024,0-1.414l-4.243-4.243    C226.945,362.405,226.312,362.405,225.922,362.795z"
   id="path1427" />
	</g>
</g>
<polygon
   style="fill:#009900;"
   points="381.54,289.044 381.54,294.044 378.04,294.044 383.04,299.011 388.04,294.044   384.54,294.044 384.54,289.044 "
   id="polygon1433" />
<polygon
   style="fill:#990000;"
   points="359.5,298.971 359.5,293.971 363,293.971 358,289.004 353,293.971 356.5,293.971   356.5,298.971 "
   id="polygon1435" />
<polygon
   style="fill:#23D545;"
   points="381.54,329.044 381.54,334.044 378.04,334.044 383.04,339.011 388.04,334.044   384.54,334.044 384.54,329.044 "
   id="polygon1437" />
<polygon
   style="fill:#FF5050;"
   points="359.5,338.971 359.5,333.971 363,333.971 358,329.004 353,333.971 356.5,333.971   356.5,338.971 "
   id="polygon1439" />
<path
   style="fill:#768D99;"
   d="M239.59,246H226.41c-0.775,0-1.41,0.634-1.41,1.41v13.181c0,0.775,0.634,1.41,1.41,1.41h13.181  c0.775,0,1.41-0.634,1.41-1.41V247.41C241,246.634,240.366,246,239.59,246z M231.049,258.519l-0.036-0.036l-0.036,0.036  l-3.742-3.742l1.414-1.414l2.363,2.363l5.964-5.964l1.414,1.414L231.049,258.519z"
   id="path1441" />
<path
   style="fill:#768D99;"
   d="M340.633,248.324c-0.423-0.446-1.111-0.449-1.535,0l-8.449,8.907l-3.844-4.052  c-0.424-0.447-1.111-0.447-1.534,0c-0.425,0.447-0.426,1.172,0,1.617l4.604,4.858c0.214,0.224,0.494,0.334,0.774,0.333  c0.28,0.001,0.56-0.109,0.773-0.333l9.211-9.713C341.058,249.494,341.058,248.771,340.633,248.324z"
   id="path1443" />
<path
   style="fill:#768D99;"
   d="M289.515,246h-12.999c-0.825,0-1.5,0.675-1.5,1.5V262c1.697-2.34,4.016-4,5.221-4h9.278  c0.825,0,1.501-0.675,1.501-1.5V247.5C291.016,246.675,290.34,246,289.515,246z M286.896,250.138l-4.729,5.016  c-0.309,0.32-0.809,0.32-1.117,0l-1.997-2.133c-0.309-0.321-0.309-0.841,0-1.161c0.308-0.321,0.808-0.321,1.116,0l1.439,1.551  l4.172-4.433c0.308-0.321,0.809-0.321,1.116,0C287.205,249.297,287.205,249.817,286.896,250.138z"
   id="path1445" />
<path
   style="fill:#768D99;"
   d="M314.515,246h-12.999c-0.825,0-1.5,0.675-1.5,1.5V262c1.697-2.34,4.016-4,5.221-4h9.278  c0.825,0,1.501-0.675,1.501-1.5V247.5C316.016,246.675,315.34,246,314.515,246z M304,253c-0.552,0-1-0.448-1-1s0.448-1,1-1  s1,0.448,1,1S304.552,253,304,253z M308,253c-0.552,0-1-0.448-1-1s0.448-1,1-1s1,0.448,1,1S308.552,253,308,253z M312,253  c-0.552,0-1-0.448-1-1s0.448-1,1-1s1,0.448,1,1S312.552,253,312,253z"
   id="path1447" />
<g
   id="g1453">
	<path
   style="fill:#768D99;"
   d="M258,258L258,258c0-0.552,0.448-1,1-1h6c0.552,0,1,0.448,1,1l0,0c0,0.552-0.448,1-1,1h-6   C258.448,259,258,258.552,258,258z"
   id="path1449" />
	<path
   style="fill:#768D99;"
   d="M256.578,253.038l-4.243-4.243c-0.391-0.391-1.024-0.391-1.414,0s-0.391,1.024,0,1.414l3.542,3.542   l-3.542,3.542c-0.391,0.391-0.391,1.024,0,1.414c0.391,0.391,1.024,0.391,1.414,0l4.243-4.243c0.197-0.197,0.293-0.455,0.292-0.713   C256.872,253.493,256.775,253.235,256.578,253.038z"
   id="path1451" />
</g>
<path
   d="M239.59,286H226.41c-0.775,0-1.41,0.634-1.41,1.41v13.181c0,0.775,0.634,1.41,1.41,1.41h13.181  c0.775,0,1.41-0.634,1.41-1.41V287.41C241,286.634,240.366,286,239.59,286z M231.049,298.519l-0.036-0.036l-0.036,0.036  l-3.742-3.742l1.414-1.414l2.363,2.363l5.964-5.964l1.414,1.414L231.049,298.519z"
   id="path1455" />
<path
   d="M340.633,288.324c-0.423-0.446-1.111-0.449-1.535,0l-8.449,8.907l-3.844-4.052c-0.424-0.447-1.111-0.447-1.534,0  c-0.425,0.447-0.426,1.172,0,1.617l4.604,4.858c0.214,0.224,0.494,0.334,0.774,0.333c0.28,0.001,0.56-0.109,0.773-0.333l9.211-9.713  C341.058,289.494,341.058,288.771,340.633,288.324z"
   id="path1457" />
<path
   d="M289.515,286h-12.999c-0.825,0-1.5,0.675-1.5,1.5V302c1.697-2.34,4.016-4,5.221-4h9.278c0.825,0,1.501-0.675,1.501-1.5  V287.5C291.016,286.675,290.34,286,289.515,286z M286.896,290.138l-4.729,5.016c-0.309,0.32-0.809,0.32-1.117,0l-1.997-2.133  c-0.309-0.321-0.309-0.841,0-1.161c0.308-0.321,0.808-0.321,1.116,0l1.439,1.551l4.172-4.433c0.308-0.321,0.809-0.321,1.116,0  C287.205,289.297,287.205,289.817,286.896,290.138z"
   id="path1459" />
<path
   d="M314.515,286h-12.999c-0.825,0-1.5,0.675-1.5,1.5V302c1.697-2.34,4.016-4,5.221-4h9.278c0.825,0,1.501-0.675,1.501-1.5  V287.5C316.016,286.675,315.34,286,314.515,286z M304,293c-0.552,0-1-0.448-1-1s0.448-1,1-1s1,0.448,1,1S304.552,293,304,293z   M308,293c-0.552,0-1-0.448-1-1s0.448-1,1-1s1,0.448,1,1S308.552,293,308,293z M312,293c-0.552,0-1-0.448-1-1s0.448-1,1-1  s1,0.448,1,1S312.552,293,312,293z"
   id="path1461" />
<g
   id="g1467">
	<path
   d="M258,298L258,298c0-0.552,0.448-1,1-1h6c0.552,0,1,0.448,1,1l0,0c0,0.552-0.448,1-1,1h-6C258.448,299,258,298.552,258,298z   "
   id="path1463" />
	<path
   d="M256.578,293.038l-4.243-4.243c-0.391-0.391-1.024-0.391-1.414,0s-0.391,1.024,0,1.414l3.542,3.542l-3.542,3.542   c-0.391,0.391-0.391,1.024,0,1.414c0.391,0.391,1.024,0.391,1.414,0l4.243-4.243c0.197-0.197,0.293-0.455,0.292-0.713   C256.872,293.493,256.775,293.235,256.578,293.038z"
   id="path1465" />
</g>
<polygon
   style="fill:#59DB8F;"
   points="656.492,249.044 656.492,254.044 652.992,254.044 657.992,259.011 662.992,254.044   659.492,254.044 659.492,249.044 "
   id="polygon1469" />
<polygon
   style="fill:#E45959;"
   points="634.453,258.971 634.453,253.971 637.953,253.971 632.953,249.004 627.953,253.971   631.453,253.971 631.453,258.971 "
   id="polygon1471" />
<polygon
   style="fill:#429E47;"
   points="381.54,249.044 381.54,254.044 378.04,254.044 383.04,259.011 388.04,254.044   384.54,254.044 384.54,249.044 "
   id="polygon1473" />
<polygon
   style="fill:#E33734;"
   points="359.5,258.971 359.5,253.971 363,253.971 358,249.004 353,253.971 356.5,253.971   356.5,258.971 "
   id="polygon1475" />
<polygon
   style="fill:#768D99;"
   points="410,252.999 410.001,257 407.057,257 411,261.083 414.942,257 412,257 412,253 "
   id="polygon1477" />
<polygon
   style="fill:#768D99;"
   points="406,255.001 405.999,251 408.943,251 405,246.917 401.058,251 404,251 404,255 "
   id="polygon1479" />
<g
   id="g1485">
	<polygon
   points="410,292.999 410.001,297 407.057,297 411,301.083 414.942,297 412,297 412,293  "
   id="polygon1481" />
	<polygon
   points="406,295.001 405.999,291 408.943,291 405,286.917 401.058,291 404,291 404,295  "
   id="polygon1483" />
</g>
<g
   id="g1491">
	<polygon
   style="fill:#FFFFFF;"
   points="410,332.999 410.001,337 407.057,337 411,341.083 414.942,337 412,337 412,333  "
   id="polygon1487" />
	<polygon
   style="fill:#FFFFFF;"
   points="406,335.001 405.999,331 408.943,331 405,326.917 401.058,331 404,331 404,335  "
   id="polygon1489" />
</g>
<path
   style="fill:#FFFFFF;"
   d="M239.59,326H226.41c-0.775,0-1.41,0.634-1.41,1.41v13.181c0,0.775,0.634,1.41,1.41,1.41h13.181  c0.775,0,1.41-0.634,1.41-1.41V327.41C241,326.634,240.366,326,239.59,326z M231.049,338.519l-0.036-0.036l-0.036,0.036  l-3.742-3.742l1.414-1.414l2.363,2.363l5.964-5.964l1.414,1.414L231.049,338.519z"
   id="path1493" />
<path
   style="fill:#FFFFFF;"
   d="M340.633,328.324c-0.423-0.446-1.111-0.449-1.535,0l-8.449,8.907l-3.844-4.052  c-0.424-0.447-1.111-0.447-1.534,0c-0.425,0.447-0.426,1.172,0,1.617l4.604,4.858c0.214,0.224,0.494,0.334,0.774,0.333  c0.28,0.001,0.56-0.109,0.773-0.333l9.211-9.713C341.058,329.494,341.058,328.771,340.633,328.324z"
   id="path1495" />
<path
   style="fill:#FFFFFF;"
   d="M289.515,326h-12.999c-0.825,0-1.5,0.675-1.5,1.5V342c1.697-2.34,4.016-4,5.221-4h9.278  c0.825,0,1.501-0.675,1.501-1.5V327.5C291.016,326.675,290.34,326,289.515,326z M286.896,330.138l-4.729,5.016  c-0.309,0.32-0.809,0.32-1.117,0l-1.997-2.133c-0.309-0.321-0.309-0.841,0-1.161c0.308-0.321,0.808-0.321,1.116,0l1.439,1.551  l4.172-4.433c0.308-0.321,0.809-0.321,1.116,0C287.205,329.297,287.205,329.817,286.896,330.138z"
   id="path1497" />
<path
   style="fill:#FFFFFF;"
   d="M314.515,326h-12.999c-0.825,0-1.5,0.675-1.5,1.5V342c1.697-2.34,4.016-4,5.221-4h9.278  c0.825,0,1.501-0.675,1.501-1.5V327.5C316.016,326.675,315.34,326,314.515,326z M304,333c-0.552,0-1-0.448-1-1s0.448-1,1-1  s1,0.448,1,1S304.552,333,304,333z M308,333c-0.552,0-1-0.448-1-1s0.448-1,1-1s1,0.448,1,1S308.552,333,308,333z M312,333  c-0.552,0-1-0.448-1-1s0.448-1,1-1s1,0.448,1,1S312.552,333,312,333z"
   id="path1499" />
<g
   id="g1505">
	<path
   style="fill:#FFFFFF;"
   d="M258,338L258,338c0-0.552,0.448-1,1-1h6c0.552,0,1,0.448,1,1l0,0c0,0.552-0.448,1-1,1h-6   C258.448,339,258,338.552,258,338z"
   id="path1501" />
	<path
   style="fill:#FFFFFF;"
   d="M256.578,333.038l-4.243-4.243c-0.391-0.391-1.024-0.391-1.414,0s-0.391,1.024,0,1.414l3.542,3.542   l-3.542,3.542c-0.391,0.391-0.391,1.024,0,1.414c0.391,0.391,1.024,0.391,1.414,0l4.243-4.243c0.197-0.197,0.293-0.455,0.292-0.713   C256.872,333.493,256.775,333.235,256.578,333.038z"
   id="path1503" />
</g>
<g
   id="g1511">
	<polygon
   style="fill:#E45959;"
   points="587,256.683 587,258.625 582,258.625 581.999,260.625 587,260.624 587,262.568    590.77,259.625  "
   id="polygon1507" />
	<circle
   style="fill:#E45959;"
   cx="577.5"
   cy="259.5"
   r="2.5"
   id="circle1509" />
</g>
<g
   id="g1517">
	<polygon
   style="fill:#E99003;"
   points="612,256.683 612,258.625 607,258.625 606.999,260.625 612,260.624 612,262.568    615.77,259.625  "
   id="polygon1513" />
	<circle
   style="fill:#E99003;"
   cx="602.5"
   cy="259.5"
   r="2.5"
   id="circle1515" />
</g>
<g
   id="g1523">
	<path
   style="fill:#768D99;"
   d="M439,248v-1.006c0-0.547-0.447-0.994-0.994-0.994h-0.012c-0.547,0-0.994,0.447-0.994,0.994V248h-3   v-1.006c0-0.547-0.447-0.994-0.994-0.994h-0.012c-0.547,0-0.994,0.447-0.994,0.994V248h-3v-1.006c0-0.547-0.447-0.994-0.994-0.994   h-0.012c-0.547,0-0.994,0.447-0.994,0.994V248h-2v12.778c0,0.672,0.55,1.222,1.222,1.222h13.557c0.672,0,1.222-0.55,1.222-1.222   V248H439z M439,259.258c0,0.41-0.332,0.742-0.742,0.742h-10.517c-0.41,0-0.742-0.332-0.742-0.742V250h12V259.258z"
   id="path1519" />
	<path
   style="fill:#768D99;"
   d="M431.07,257.811c0.309,0.32,0.809,0.32,1.117,0l4.729-5.016c0.308-0.321,0.308-0.841,0-1.161   c-0.308-0.321-0.808-0.321-1.116,0l-4.172,4.433l-1.438-1.551c-0.308-0.321-0.809-0.321-1.116,0c-0.309,0.32-0.309,0.84,0,1.161   L431.07,257.811z"
   id="path1521" />
</g>
<g
   id="g1531">
	<path
   style="fill:#768D99;"
   d="M464,248v-1.006c0-0.547-0.447-0.994-0.994-0.994h-0.012c-0.547,0-0.994,0.447-0.994,0.994V248h-3   v-1.006c0-0.547-0.447-0.994-0.994-0.994h-0.012c-0.547,0-0.994,0.447-0.994,0.994V248h-3v-1.006c0-0.547-0.447-0.994-0.994-0.994   h-0.012c-0.547,0-0.994,0.447-0.994,0.994V248h-2v12.778c0,0.672,0.55,1.222,1.222,1.222h13.557c0.672,0,1.222-0.55,1.222-1.222   V248H464z M464,259.258c0,0.41-0.332,0.742-0.742,0.742h-10.517c-0.41,0-0.742-0.332-0.742-0.742V250h12V259.258z"
   id="path1525" />
	<path
   style="fill:#768D99;"
   d="M458,256c0.552,0,1-0.448,1-1v-3c0-0.552-0.448-1-1-1s-1,0.448-1,1v3   C457,255.552,457.448,256,458,256z"
   id="path1527" />
	<circle
   style="fill:#768D99;"
   cx="458"
   cy="258"
   r="1"
   id="circle1529" />
</g>
<path
   style="fill:#768D99;"
   d="M491,256.499c0,0.825-0.675,1.501-1.501,1.501h-9.278c-1.206,0-3.524,1.66-5.221,4v-14.499  c0-0.825,0.675-1.501,1.501-1.501h12.999c0.825,0,1.501,0.675,1.501,1.501V256.499z"
   id="path1533" />
<g
   id="g1539">
	<polygon
   style="fill:#768D99;"
   points="512,256.683 512,258.625 507,258.625 506.999,260.625 512,260.624 512,262.568    515.77,259.625  "
   id="polygon1535" />
	<circle
   style="fill:#768D99;"
   cx="502.5"
   cy="259.5"
   r="2.5"
   id="circle1537" />
</g>
<g
   id="g1545">
	<polygon
   style="fill:#E33734;"
   points="537,256.683 537,258.625 532,258.625 531.999,260.625 537,260.624 537,262.568    540.77,259.625  "
   id="polygon1541" />
	<circle
   style="fill:#E33734;"
   cx="527.5"
   cy="259.5"
   r="2.5"
   id="circle1543" />
</g>
<g
   id="g1551">
	<path
   d="M439,288v-1.006c0-0.547-0.447-0.994-0.994-0.994h-0.012c-0.547,0-0.994,0.447-0.994,0.994V288h-3v-1.006   c0-0.547-0.447-0.994-0.994-0.994h-0.012c-0.547,0-0.994,0.447-0.994,0.994V288h-3v-1.006c0-0.547-0.447-0.994-0.994-0.994h-0.012   c-0.547,0-0.994,0.447-0.994,0.994V288h-2v12.778c0,0.672,0.55,1.222,1.222,1.222h13.557c0.672,0,1.222-0.55,1.222-1.222V288H439z    M439,299.258c0,0.41-0.332,0.742-0.742,0.742h-10.517c-0.41,0-0.742-0.332-0.742-0.742V290h12V299.258z"
   id="path1547" />
	<path
   d="M431.07,297.811c0.309,0.32,0.809,0.32,1.117,0l4.729-5.016c0.308-0.321,0.308-0.841,0-1.161   c-0.308-0.321-0.808-0.321-1.116,0l-4.172,4.433l-1.438-1.551c-0.308-0.321-0.809-0.321-1.116,0c-0.309,0.32-0.309,0.84,0,1.161   L431.07,297.811z"
   id="path1549" />
</g>
<g
   id="g1559">
	<path
   d="M464,288v-1.006c0-0.547-0.447-0.994-0.994-0.994h-0.012c-0.547,0-0.994,0.447-0.994,0.994V288h-3v-1.006   c0-0.547-0.447-0.994-0.994-0.994h-0.012c-0.547,0-0.994,0.447-0.994,0.994V288h-3v-1.006c0-0.547-0.447-0.994-0.994-0.994h-0.012   c-0.547,0-0.994,0.447-0.994,0.994V288h-2v12.778c0,0.672,0.55,1.222,1.222,1.222h13.557c0.672,0,1.222-0.55,1.222-1.222V288H464z    M464,299.258c0,0.41-0.332,0.742-0.742,0.742h-10.517c-0.41,0-0.742-0.332-0.742-0.742V290h12V299.258z"
   id="path1553" />
	<path
   d="M458,296c0.552,0,1-0.448,1-1v-3c0-0.552-0.448-1-1-1s-1,0.448-1,1v3C457,295.552,457.448,296,458,296z"
   id="path1555" />
	<circle
   cx="458"
   cy="298"
   r="1"
   id="circle1557" />
</g>
<path
   d="M491,296.499c0,0.825-0.675,1.501-1.501,1.501h-9.278c-1.206,0-3.524,1.66-5.221,4v-14.499c0-0.825,0.675-1.501,1.501-1.501  h12.999c0.825,0,1.501,0.675,1.501,1.501V296.499z"
   id="path1561" />
<g
   id="g1567">
	<polygon
   points="512,296.683 512,298.625 507,298.625 506.999,300.625 512,300.624 512,302.568 515.77,299.625  "
   id="polygon1563" />
	<circle
   cx="502.5"
   cy="299.5"
   r="2.5"
   id="circle1565" />
</g>
<g
   id="g1573">
	<polygon
   style="fill:#990000;"
   points="537,296.683 537,298.625 532,298.625 531.999,300.625 537,300.624 537,302.568    540.77,299.625  "
   id="polygon1569" />
	<circle
   style="fill:#990000;"
   cx="527.5"
   cy="299.5"
   r="2.5"
   id="circle1571" />
</g>
<g
   id="g1579">
	<path
   style="fill:#FFFFFF;"
   d="M439,328v-1.006c0-0.547-0.447-0.994-0.994-0.994h-0.012c-0.547,0-0.994,0.447-0.994,0.994V328h-3   v-1.006c0-0.547-0.447-0.994-0.994-0.994h-0.012c-0.547,0-0.994,0.447-0.994,0.994V328h-3v-1.006c0-0.547-0.447-0.994-0.994-0.994   h-0.012c-0.547,0-0.994,0.447-0.994,0.994V328h-2v12.778c0,0.672,0.55,1.222,1.222,1.222h13.557c0.672,0,1.222-0.55,1.222-1.222   V328H439z M439,339.258c0,0.41-0.332,0.742-0.742,0.742h-10.517c-0.41,0-0.742-0.332-0.742-0.742V330h12V339.258z"
   id="path1575" />
	<path
   style="fill:#FFFFFF;"
   d="M431.07,337.811c0.309,0.32,0.809,0.32,1.117,0l4.729-5.016c0.308-0.321,0.308-0.841,0-1.161   c-0.308-0.321-0.808-0.321-1.116,0l-4.172,4.433l-1.438-1.551c-0.308-0.321-0.809-0.321-1.116,0c-0.309,0.32-0.309,0.84,0,1.161   L431.07,337.811z"
   id="path1577" />
</g>
<g
   id="g1587">
	<path
   style="fill:#FFFFFF;"
   d="M464,328v-1.006c0-0.547-0.447-0.994-0.994-0.994h-0.012c-0.547,0-0.994,0.447-0.994,0.994V328h-3   v-1.006c0-0.547-0.447-0.994-0.994-0.994h-0.012c-0.547,0-0.994,0.447-0.994,0.994V328h-3v-1.006c0-0.547-0.447-0.994-0.994-0.994   h-0.012c-0.547,0-0.994,0.447-0.994,0.994V328h-2v12.778c0,0.672,0.55,1.222,1.222,1.222h13.557c0.672,0,1.222-0.55,1.222-1.222   V328H464z M464,339.258c0,0.41-0.332,0.742-0.742,0.742h-10.517c-0.41,0-0.742-0.332-0.742-0.742V330h12V339.258z"
   id="path1581" />
	<path
   style="fill:#FFFFFF;"
   d="M458,336c0.552,0,1-0.448,1-1v-3c0-0.552-0.448-1-1-1s-1,0.448-1,1v3   C457,335.552,457.448,336,458,336z"
   id="path1583" />
	<circle
   style="fill:#FFFFFF;"
   cx="458"
   cy="338"
   r="1"
   id="circle1585" />
</g>
<g
   id="g1593">
	<path
   style="fill:#FFFFFF;"
   d="M475.5,327.501c0-0.552,0.449-1.001,1.001-1.001h12.998c0.552,0,1.001,0.449,1.001,1.001v8.998   c0,0.552-0.449,1.001-1.001,1.001h-9.277c-1.205,0-3.125,1.286-4.722,3.082V327.501z"
   id="path1589" />
	<path
   style="fill:#FFFFFF;"
   d="M489.499,327c0.271,0,0.501,0.229,0.501,0.501v8.999c0,0.271-0.229,0.501-0.501,0.501h-9.278   c-1.253,0-2.836,1.01-4.221,2.34v-11.84c0-0.271,0.229-0.501,0.501-0.501H489.499 M489.499,326h-12.999   c-0.825,0-1.501,0.675-1.501,1.501V342c1.697-2.34,4.016-4,5.221-4h9.278c0.825,0,1.501-0.675,1.501-1.501v-8.999   C491,326.675,490.325,326,489.499,326L489.499,326z"
   id="path1591" />
</g>
<g
   id="g1599">
	<polygon
   style="fill:#FFFFFF;"
   points="512,336.683 512,338.625 507,338.625 506.999,340.625 512,340.624 512,342.568    515.77,339.625  "
   id="polygon1595" />
	<circle
   style="fill:#FFFFFF;"
   cx="502.5"
   cy="339.5"
   r="2.5"
   id="circle1597" />
</g>
<g
   id="g1605">
	<polygon
   style="fill:#FF5050;"
   points="537,336.683 537,338.625 532,338.625 531.999,340.625 537,340.624 537,342.568    540.77,339.625  "
   id="polygon1601" />
	<circle
   style="fill:#FF5050;"
   cx="527.5"
   cy="339.5"
   r="2.5"
   id="circle1603" />
</g>
<g
   id="g1611">
	<polygon
   style="fill:#E99003;"
   points="562,256.683 562,258.625 557,258.625 556.999,260.625 562,260.624 562,262.568    565.77,259.625  "
   id="polygon1607" />
	<circle
   style="fill:#E99003;"
   cx="552.5"
   cy="259.5"
   r="2.5"
   id="circle1609" />
</g>
<g
   id="g1617">
	<polygon
   style="fill:#AF6B00;"
   points="562,296.683 562,298.625 557,298.625 556.999,300.625 562,300.624 562,302.568    565.77,299.625  "
   id="polygon1613" />
	<circle
   style="fill:#AF6B00;"
   cx="552.5"
   cy="299.5"
   r="2.5"
   id="circle1615" />
</g>
<g
   id="g1623">
	<polygon
   style="fill:#FFA20D;"
   points="562,336.683 562,338.625 557,338.625 556.999,340.625 562,340.624 562,342.568    565.77,339.625  "
   id="polygon1619" />
	<circle
   style="fill:#FFA20D;"
   cx="552.5"
   cy="339.5"
   r="2.5"
   id="circle1621" />
</g>
<g
   id="g1629">
	<path
   style="fill:#768D99;"
   d="M208,255.939l7.53-7.53c-0.267-0.252-0.623-0.409-1.017-0.409h-13.027   c-0.393,0-0.75,0.157-1.017,0.409L208,255.939z"
   id="path1625" />
	<path
   style="fill:#768D99;"
   d="M212.061,254l2.97,2.97c0.293,0.293,0.293,0.768,0,1.061c-0.146,0.146-0.338,0.22-0.53,0.22   s-0.384-0.073-0.53-0.22l-2.97-2.97l-2.47,2.47c-0.146,0.146-0.338,0.22-0.53,0.22s-0.384-0.073-0.53-0.22l-2.47-2.47l-2.97,2.97   c-0.146,0.146-0.338,0.22-0.53,0.22s-0.384-0.073-0.53-0.22c-0.293-0.293-0.293-0.768,0-1.061l2.97-2.97L200,250.061v8.453   c0,0.818,0.669,1.486,1.486,1.486h13.027c0.818,0,1.486-0.669,1.486-1.486v-8.453L212.061,254z"
   id="path1627" />
</g>
<g
   id="g1635">
	<path
   d="M208,295.939l7.53-7.53c-0.267-0.252-0.623-0.409-1.017-0.409h-13.027c-0.393,0-0.75,0.157-1.017,0.409L208,295.939z"
   id="path1631" />
	<path
   d="M212.061,294l2.97,2.97c0.293,0.293,0.293,0.768,0,1.061c-0.146,0.146-0.338,0.22-0.53,0.22s-0.384-0.073-0.53-0.22   l-2.97-2.97l-2.47,2.47c-0.146,0.146-0.338,0.22-0.53,0.22s-0.384-0.073-0.53-0.22l-2.47-2.47l-2.97,2.97   c-0.146,0.146-0.338,0.22-0.53,0.22s-0.384-0.073-0.53-0.22c-0.293-0.293-0.293-0.768,0-1.061l2.97-2.97L200,290.061v8.453   c0,0.818,0.669,1.486,1.486,1.486h13.027c0.818,0,1.486-0.669,1.486-1.486v-8.453L212.061,294z"
   id="path1633" />
</g>
<g
   id="g1641">
	<path
   style="fill:#FFFFFF;"
   d="M208,335.939l7.53-7.53c-0.267-0.252-0.623-0.409-1.017-0.409h-13.027   c-0.393,0-0.75,0.157-1.017,0.409L208,335.939z"
   id="path1637" />
	<path
   style="fill:#FFFFFF;"
   d="M212.061,334l2.97,2.97c0.293,0.293,0.293,0.768,0,1.061c-0.146,0.146-0.338,0.22-0.53,0.22   s-0.384-0.073-0.53-0.22l-2.97-2.97l-2.47,2.47c-0.146,0.146-0.338,0.22-0.53,0.22s-0.384-0.073-0.53-0.22l-2.47-2.47l-2.97,2.97   c-0.146,0.146-0.338,0.22-0.53,0.22s-0.384-0.073-0.53-0.22c-0.293-0.293-0.293-0.768,0-1.061l2.97-2.97L200,330.061v8.453   c0,0.818,0.669,1.486,1.486,1.486h13.027c0.818,0,1.486-0.669,1.486-1.486v-8.453L212.061,334z"
   id="path1639" />
</g>
<path
   style="fill:#FFFFFF;"
   d="M103.669,552.525l-3.443,3.844l-0.357,0.399v0.535v6.046l-2.2-0.926v-5.12v-0.544l-0.367-0.401  l-3.509-3.833H103.669 M105.316,551.125H92.121c-0.606,0-0.912,0.707-0.483,1.12l4.63,5.058v5.634c0,0.214,0.109,0.415,0.291,0.538  l3.635,1.531c0.122,0.082,0.257,0.119,0.388,0.119c0.354,0,0.686-0.268,0.686-0.657v-7.165l4.53-5.058  C106.228,551.833,105.924,551.125,105.316,551.125L105.316,551.125z"
   id="path1643" />
<path
   style="fill:#FFFFFF;"
   d="M415.669,552.525l-3.443,3.844l-0.357,0.399v0.535v6.046l-2.2-0.926v-5.12v-0.544l-0.367-0.401  l-3.509-3.833H415.669 M417.316,551.125h-13.195c-0.606,0-0.912,0.707-0.483,1.12l4.63,5.058v5.634c0,0.214,0.109,0.415,0.291,0.538  l3.635,1.531c0.122,0.082,0.257,0.119,0.388,0.119c0.354,0,0.686-0.268,0.686-0.657v-7.165l4.53-5.058  C418.228,551.833,417.924,551.125,417.316,551.125L417.316,551.125z"
   id="path1645" />
<path
   d="M263.231,552.525l-3.443,3.844l-0.357,0.399v0.535v6.046l-2.2-0.926v-5.12v-0.544l-0.367-0.401l-3.509-3.833H263.231   M264.878,551.125h-13.195c-0.606,0-0.912,0.707-0.483,1.12l4.63,5.058v5.634c0,0.214,0.109,0.415,0.291,0.538l3.635,1.531  c0.122,0.082,0.257,0.119,0.388,0.119c0.354,0,0.686-0.268,0.686-0.657v-7.165l4.53-5.058  C265.79,551.833,265.486,551.125,264.878,551.125L264.878,551.125z"
   id="path1647" />
<g
   id="g1663">
	<g
   id="g1653">
		<polygon
   style="fill:#FFFFFF;"
   points="323.5,411.5 338.379,411.5 323.5,426.379   "
   id="polygon1649" />
		<path
   style="fill:#FFFFFF;"
   d="M337.172,412L324,425.172V412H337.172 M339.586,411H323v16.586L339.586,411L339.586,411z"
   id="path1651" />
	</g>
	<g
   id="g1659">
		<polygon
   style="fill:#FFFFFF;"
   points="325.621,428.5 340.5,413.621 340.5,428.5   "
   id="polygon1655" />
		<path
   style="fill:#FFFFFF;"
   d="M340,414.828V428h-13.172L340,414.828 M341,412.414L324.414,429H341V412.414L341,412.414z"
   id="path1657" />
	</g>
	<polygon
   style="fill:#D40000;"
   points="339.586,411 323,427.586 323,429 324.414,429 341,412.414 341,411  "
   id="polygon1661" />
</g>
<path
   style="fill:#768D99;"
   d="M97.575,814.82c-2.236-0.246-3.784-2.376-3.248-4.568L97.575,814.82z M98,815.718  c-2.849,0-5.336-1.496-6.667-3.719c0.604-1.009,1.447-1.869,2.454-2.506l-0.765-1.076c-1.161,0.745-2.136,1.743-2.838,2.916  c-0.246,0.411-0.246,0.922,0,1.333c1.566,2.615,4.486,4.365,7.815,4.365c0.368,0,0.736-0.022,1.101-0.065l-0.889-1.251  C98.141,815.717,98.07,815.718,98,815.718z M105.815,812.666c-0.923,1.542-2.317,2.782-3.988,3.541l1.337,1.88  c0.106,0.148,0.069,0.353-0.082,0.457l-0.576,0.397c-0.151,0.104-0.359,0.068-0.464-0.081l-9.207-12.947  c-0.106-0.148-0.069-0.353,0.082-0.457l0.576-0.397c0.151-0.104,0.359-0.068,0.464,0.081l1.542,2.169  c0.795-0.222,1.633-0.34,2.5-0.34c3.329,0,6.25,1.75,7.815,4.365C106.061,811.745,106.061,812.255,105.815,812.666L105.815,812.666z   M104.666,812c-1.227-2.049-3.435-3.48-6.005-3.692c-0.272,0.276-0.44,0.652-0.44,1.067c0,0.846,0.696,1.531,1.556,1.531  c0.859,0,1.556-0.686,1.556-1.531l0-0.001c0.851,1.566,0.465,3.562-1.026,4.695l0.742,1.043  C102.573,814.476,103.842,813.377,104.666,812z"
   id="path1665" />
<path
   d="M257.137,814.82c-2.236-0.246-3.784-2.376-3.248-4.568L257.137,814.82z M257.561,815.718c-2.849,0-5.336-1.496-6.667-3.719  c0.604-1.009,1.447-1.869,2.454-2.506l-0.765-1.076c-1.161,0.745-2.136,1.743-2.838,2.916c-0.246,0.411-0.246,0.922,0,1.333  c1.566,2.615,4.486,4.365,7.815,4.365c0.368,0,0.736-0.022,1.101-0.065l-0.889-1.251  C257.703,815.717,257.632,815.718,257.561,815.718z M265.377,812.666c-0.923,1.542-2.317,2.782-3.988,3.541l1.337,1.88  c0.106,0.148,0.069,0.353-0.082,0.457l-0.576,0.397c-0.151,0.104-0.359,0.068-0.464-0.081l-9.206-12.947  c-0.106-0.148-0.069-0.353,0.082-0.457l0.576-0.397c0.151-0.104,0.359-0.068,0.464,0.081l1.542,2.169  c0.795-0.222,1.633-0.34,2.5-0.34c3.329,0,6.25,1.75,7.815,4.365C265.623,811.745,265.623,812.255,265.377,812.666L265.377,812.666z   M264.228,812c-1.227-2.049-3.435-3.48-6.005-3.692c-0.272,0.276-0.44,0.652-0.44,1.067c0,0.846,0.696,1.531,1.556,1.531  c0.859,0,1.556-0.686,1.556-1.531l0-0.001c0.851,1.566,0.465,3.562-1.026,4.695l0.742,1.043  C262.134,814.476,263.403,813.377,264.228,812z"
   id="path1667" />
<path
   style="fill:#FFFFFF;"
   d="M409.575,814.82c-2.236-0.246-3.784-2.376-3.248-4.568L409.575,814.82z M410,815.718  c-2.849,0-5.336-1.496-6.667-3.719c0.604-1.009,1.447-1.869,2.454-2.506l-0.765-1.076c-1.161,0.745-2.136,1.743-2.838,2.916  c-0.246,0.411-0.246,0.922,0,1.333c1.565,2.615,4.486,4.365,7.815,4.365c0.368,0,0.736-0.022,1.101-0.065l-0.889-1.251  C410.141,815.717,410.07,815.718,410,815.718z M417.815,812.666c-0.923,1.542-2.317,2.782-3.988,3.541l1.337,1.88  c0.106,0.148,0.069,0.353-0.082,0.457l-0.576,0.397c-0.151,0.104-0.359,0.068-0.464-0.081l-9.206-12.947  c-0.106-0.148-0.069-0.353,0.082-0.457l0.576-0.397c0.151-0.104,0.359-0.068,0.464,0.081l1.542,2.169  c0.795-0.222,1.633-0.34,2.5-0.34c3.329,0,6.25,1.75,7.815,4.365C418.061,811.745,418.061,812.255,417.815,812.666L417.815,812.666z   M416.666,812c-1.227-2.049-3.435-3.48-6.005-3.692c-0.272,0.276-0.44,0.652-0.44,1.067c0,0.846,0.696,1.531,1.556,1.531  c0.859,0,1.556-0.686,1.556-1.531l0-0.001c0.851,1.566,0.465,3.562-1.026,4.695l0.742,1.043  C414.573,814.476,415.842,813.377,416.666,812z"
   id="path1669" />
<path
   style="fill:#FFFFFF;"
   d="M410,840.289c-4.418,0-8,3.796-8,5c0,1.317,3.582,5,8,5s8-3.583,8-5  C418,844.122,414.418,840.289,410,840.289z M409.999,841.844c1.337,0,2.42,1.084,2.42,2.42c0,1.337-1.084,2.42-2.42,2.42  s-2.42-1.084-2.42-2.42C407.579,842.927,408.663,841.844,409.999,841.844z M410,849.059c-3.544,0-6.417-2.778-6.417-3.771  c0-0.589,1.213-1.998,3.03-2.917c-0.315,0.563-0.51,1.202-0.51,1.892c0,2.152,1.744,3.896,3.896,3.896s3.896-1.744,3.896-3.896  c0-0.687-0.193-1.323-0.505-1.884c1.815,0.925,3.027,2.338,3.027,2.908C416.417,846.357,413.544,849.059,410,849.059z"
   id="path1671" />
<path
   d="M257.561,840.289c-4.418,0-8,3.796-8,5c0,1.317,3.582,5,8,5s8-3.583,8-5C265.561,844.122,261.98,840.289,257.561,840.289z   M257.561,841.844c1.337,0,2.42,1.084,2.42,2.42c0,1.337-1.084,2.42-2.42,2.42s-2.42-1.084-2.42-2.42  C255.141,842.927,256.224,841.844,257.561,841.844z M257.561,849.059c-3.544,0-6.417-2.778-6.417-3.771  c0-0.589,1.213-1.998,3.03-2.917c-0.315,0.563-0.51,1.202-0.51,1.892c0,2.152,1.744,3.896,3.896,3.896s3.896-1.744,3.896-3.896  c0-0.687-0.193-1.323-0.505-1.884c1.815,0.925,3.027,2.338,3.027,2.908C263.978,846.357,261.105,849.059,257.561,849.059z"
   id="path1673" />
<path
   style="fill:#768D99;"
   d="M98,840.289c-4.418,0-8,3.796-8,5c0,1.317,3.582,5,8,5s8-3.583,8-5  C106,844.122,102.418,840.289,98,840.289z M97.999,841.844c1.337,0,2.42,1.084,2.42,2.42c0,1.337-1.084,2.42-2.42,2.42  s-2.42-1.084-2.42-2.42C95.579,842.927,96.663,841.844,97.999,841.844z M98,849.059c-3.544,0-6.417-2.778-6.417-3.771  c0-0.589,1.213-1.998,3.03-2.917c-0.315,0.563-0.51,1.202-0.51,1.892c0,2.152,1.744,3.896,3.896,3.896s3.896-1.744,3.896-3.896  c0-0.687-0.193-1.323-0.505-1.884c1.815,0.925,3.027,2.338,3.027,2.908C104.417,846.357,101.544,849.059,98,849.059z"
   id="path1675" />
<g
   id="g1681">
	<path
   style="fill:#768D99;"
   d="M99,767c-3.85,0-7,3.15-7,7h-2.115l2.862,2.862L95.609,774H93.4c0-3.08,2.52-5.6,5.6-5.6   s5.6,2.52,5.6,5.6c0,3.08-2.52,5.6-5.6,5.6c-1.311,0-2.517-0.459-3.474-1.221l-1.044,0.952C95.703,780.369,97.28,781,99,781   c3.85,0,7-3.15,7-7C106,770.15,102.85,767,99,767z"
   id="path1677" />
	<polygon
   style="fill:#768D99;"
   points="98.3,770.5 98.3,774.7 101.94,776.94 102.5,776.03 99.35,774.14 99.35,770.5  "
   id="polygon1679" />
</g>
<g
   id="g1687">
	<path
   d="M258,767c-3.85,0-7,3.15-7,7h-2.115l2.862,2.862l2.862-2.862H252.4c0-3.08,2.52-5.6,5.6-5.6s5.6,2.52,5.6,5.6   c0,3.08-2.52,5.6-5.6,5.6c-1.311,0-2.517-0.459-3.474-1.221l-1.044,0.952C254.703,780.369,256.28,781,258,781c3.85,0,7-3.15,7-7   C265,770.15,261.85,767,258,767z"
   id="path1683" />
	<polygon
   points="257.3,770.5 257.3,774.7 260.94,776.94 261.5,776.03 258.35,774.14 258.35,770.5  "
   id="polygon1685" />
</g>
<g
   id="g1693">
	<path
   style="fill:#FFFFFF;"
   d="M411,767c-3.85,0-7,3.15-7,7h-2.115l2.862,2.862l2.862-2.862H405.4c0-3.08,2.52-5.6,5.6-5.6   s5.6,2.52,5.6,5.6c0,3.08-2.52,5.6-5.6,5.6c-1.311,0-2.517-0.459-3.474-1.221l-1.044,0.952C407.703,780.369,409.28,781,411,781   c3.85,0,7-3.15,7-7C418,770.15,414.85,767,411,767z"
   id="path1689" />
	<polygon
   style="fill:#FFFFFF;"
   points="410.3,770.5 410.3,774.7 413.94,776.94 414.5,776.03 411.35,774.14 411.35,770.5  "
   id="polygon1691" />
</g>
<g
   id="g1701">
	<path
   style="fill:#768D99;"
   d="M185.48,900.085c-4.153,0-7.52,3.339-7.52,7.458c0,4.119,3.367,7.458,7.52,7.458   s7.52-3.339,7.52-7.458C193,903.424,189.633,900.085,185.48,900.085z M185.48,913.508c-3.323,0-6.016-2.671-6.016-5.966   c0-3.295,2.693-5.966,6.016-5.966s6.016,2.671,6.016,5.966C191.496,910.837,188.803,913.508,185.48,913.508z"
   id="path1695" />
	<path
   style="fill:#768D99;"
   d="M157,888v27h24.454c-0.529-0.282-1.023-0.618-1.478-1H158v-21h34v9.093   c0.382,0.448,0.718,0.935,1,1.456V888H157z M188,892h-3v-3h3V892z M192,892h-3v-3h3V892z"
   id="path1697" />
	<polygon
   style="fill:#768D99;"
   points="185.98,905.042 184.98,905.042 184.98,907.042 182.98,907.042 182.98,908.042    184.98,908.042 184.98,910.042 185.98,910.042 185.98,908.042 187.98,908.042 187.98,907.042 185.98,907.042  "
   id="polygon1699" />
</g>
<g
   id="g1709">
	<path
   d="M241.48,900.085c-4.153,0-7.52,3.339-7.52,7.458c0,4.119,3.367,7.458,7.52,7.458s7.52-3.339,7.52-7.458   C249,903.424,245.633,900.085,241.48,900.085z M241.48,913.508c-3.323,0-6.016-2.671-6.016-5.966c0-3.295,2.693-5.966,6.016-5.966   s6.016,2.671,6.016,5.966C247.496,910.837,244.803,913.508,241.48,913.508z"
   id="path1703" />
	<path
   d="M213,888v27h24.454c-0.529-0.282-1.023-0.618-1.478-1H214v-21h34v9.093c0.382,0.448,0.718,0.935,1,1.456V888H213z M244,892   h-3v-3h3V892z M248,892h-3v-3h3V892z"
   id="path1705" />
	<polygon
   points="241.98,905.042 240.98,905.042 240.98,907.042 238.98,907.042 238.98,908.042 240.98,908.042 240.98,910.042    241.98,910.042 241.98,908.042 243.98,908.042 243.98,907.042 241.98,907.042  "
   id="polygon1707" />
</g>
<g
   id="g1717">
	<path
   style="fill:#FFFFFF;"
   d="M297.481,900.085c-4.153,0-7.52,3.339-7.52,7.458c0,4.119,3.367,7.458,7.52,7.458   s7.52-3.339,7.52-7.458C305,903.424,301.634,900.085,297.481,900.085z M297.481,913.508c-3.323,0-6.016-2.671-6.016-5.966   c0-3.295,2.693-5.966,6.016-5.966s6.016,2.671,6.016,5.966C303.496,910.837,300.803,913.508,297.481,913.508z"
   id="path1711" />
	<path
   style="fill:#FFFFFF;"
   d="M269,888v27h24.454c-0.529-0.282-1.023-0.618-1.478-1H270v-21h34v9.093   c0.382,0.448,0.718,0.935,1,1.456V888H269z M300,892h-3v-3h3V892z M304,892h-3v-3h3V892z"
   id="path1713" />
	<polygon
   style="fill:#FFFFFF;"
   points="297.981,905.042 296.981,905.042 296.981,907.042 294.981,907.042 294.981,908.042    296.981,908.042 296.981,910.042 297.981,910.042 297.981,908.042 299.981,908.042 299.981,907.042 297.981,907.042  "
   id="polygon1715" />
</g>
<g
   id="g1723">
	<path
   style="fill:#768D99;"
   d="M345,888v27h29.064l1-1h-29.064v-21h34v16.064l1-1V888H345z M376.001,892h-3v-3h3V892z M380.001,892   h-3v-3h3V892z"
   id="path1719" />
	<polygon
   style="fill:#768D99;"
   points="375.601,908.186 377.394,906.394 372.394,906.394 372.394,911.394 374.187,909.601    377.794,913.207 376.001,915 381.001,915 381.001,910 379.208,911.793  "
   id="polygon1721" />
</g>
<g
   id="g1729">
	<path
   d="M401.001,888v27h29.064l1-1h-29.064v-21h34v16.064l1-1V888H401.001z M432.001,892h-3v-3h3V892z M436.001,892h-3v-3h3V892z"
   id="path1725" />
	<polygon
   points="431.602,908.186 433.394,906.394 428.394,906.394 428.394,911.394 430.187,909.601 433.794,913.207 432.001,915    437.001,915 437.001,910 435.208,911.793  "
   id="polygon1727" />
</g>
<g
   id="g1735">
	<path
   style="fill:#FFFFFF;"
   d="M457.001,888v27h29.064l1-1h-29.064v-21h34v16.064l1-1V888H457.001z M488.001,892h-3v-3h3V892z    M492.001,892h-3v-3h3V892z"
   id="path1731" />
	<polygon
   style="fill:#FFFFFF;"
   points="487.602,908.186 489.395,906.394 484.395,906.394 484.395,911.394 486.188,909.601    489.794,913.207 488.001,915 493.001,915 493.001,910 491.208,911.793  "
   id="polygon1733" />
</g>
<g
   style="display:none;"
   id="g1761">
	<g
   style="display:inline;"
   id="g1747">
		<polygon
   style="fill:#FFFFFF;"
   points="85,307.869 83,307.869 83,310.869 83,312.869 85,312.869 88,312.869 88,310.869     85,310.869   "
   id="polygon1737" />
		<polygon
   style="fill:#FFFFFF;"
   points="95,310.869 92,310.869 92,312.869 95,312.869 97,312.869 97,310.869 97,307.869     95,307.869   "
   id="polygon1739" />
		<polygon
   style="fill:#FFFFFF;"
   points="85,300.869 88,300.869 88,298.869 85,298.869 83,298.869 83,300.869 83,303.869     85,303.869   "
   id="polygon1741" />
		<path
   style="fill:#FFFFFF;"
   d="M93,306.869v-4h-1h-1h-2h-2v2v4h1h1h2h2V306.869z M91,306.869h-2v-2h2V306.869z"
   id="path1743" />
		<polygon
   style="fill:#FFFFFF;"
   points="95,298.869 92,298.869 92,300.869 95,300.869 95,303.869 97,303.869 97,300.869     97,298.869   "
   id="polygon1745" />
	</g>
	<g
   style="display:inline;"
   id="g1759">
		<polygon
   points="85,200 83,200 83,203 83,205 85,205 88,205 88,203 85,203   "
   id="polygon1749" />
		<polygon
   points="95,203 92,203 92,205 95,205 97,205 97,203 97,200 95,200   "
   id="polygon1751" />
		<polygon
   points="85,193 88,193 88,191 85,191 83,191 83,193 83,196 85,196   "
   id="polygon1753" />
		<path
   d="M93,199v-4h-1h-1h-2h-2v2v4h1h1h2h2V199z M91,199h-2v-2h2V199z"
   id="path1755" />
		<polygon
   points="95,191 92,191 92,193 95,193 95,196 97,196 97,193 97,191   "
   id="polygon1757" />
	</g>
</g>
<rect
   x="89"
   y="300"
   style="fill:#7F7F7F;"
   width="2"
   height="12"
   id="rect1763" />
<polygon
   style="fill:#7F7F7F;"
   points="96,339 91,339 91,334 89,334 89,346 91,346 91,341 96,341 "
   id="polygon1765" />
<polygon
   style="fill:#7F7F7F;"
   points="96,377 91,377 91,372 89,372 89,379 96,379 "
   id="polygon1767" />
<rect
   id="rect1776"
   width="114"
   height="30"
   x="0"
   y="864"
   style="fill:none" /><text
   xml:space="preserve"
   style="font-style:normal;font-weight:normal;font-size:40px;line-height:1.25;font-family:sans-serif;letter-spacing:0px;word-spacing:0px;fill:#000000;fill-opacity:1;stroke:none"
   x="0"
   y="894"
   id="text1780"><tspan
     sodipodi:role="line"
     id="tspan1778"
     x="0"
     y="929.39062" /></text>
<text
   xml:space="preserve"
   style="font-style:normal;font-weight:normal;font-size:40px;line-height:1.25;font-family:sans-serif;letter-spacing:0px;word-spacing:0px;fill:#000000;fill-opacity:1;stroke:none"
   x="0"
   y="894"
   id="text1784"><tspan
     sodipodi:role="line"
     id="tspan1782"
     x="0"
     y="929.39062"></tspan></text>
<text
   xml:space="preserve"
   style="font-style:normal;font-variant:normal;font-weight:normal;font-stretch:normal;font-size:34.13827133px;line-height:1.25;font-family:'Bitstream Charter';-inkscape-font-specification:'Bitstream Charter, Normal';font-variant-ligatures:normal;font-variant-caps:normal;font-variant-numeric:normal;font-feature-settings:normal;text-align:start;letter-spacing:0px;word-spacing:0px;writing-mode:lr-tb;text-anchor:start;fill:#000000;fill-opacity:1;stroke:none;stroke-width:0.85345626"
   x="-24.03639"
   y="952.5921"
   id="text1788"
   transform="matrix(1.0745838,0,0.02700047,0.93059283,0,0)"><tspan
     sodipodi:role="line"
     id="tspan1786"
     x="-24.03639"
     y="952.5921"
     style="font-style:normal;font-variant:normal;font-weight:normal;font-stretch:normal;font-size:34.13827133px;font-family:'Bitstream Charter';-inkscape-font-specification:'Bitstream Charter, Normal';font-variant-ligatures:normal;font-variant-caps:normal;font-variant-numeric:normal;font-feature-settings:normal;text-align:start;writing-mode:lr-tb;text-anchor:start;stroke-width:0.85345626">treegix</tspan></text>
<rect
   style="fill:none"
   id="rect1805"
   width="95"
   height="25"
   x="0"
   y="903" /><text
   xml:space="preserve"
   style="font-style:normal;font-variant:normal;font-weight:normal;font-stretch:normal;font-size:28.570158px;line-height:1.25;font-family:'Bitstream Charter';-inkscape-font-specification:'Bitstream Charter, Normal';font-variant-ligatures:normal;font-variant-caps:normal;font-variant-numeric:normal;font-feature-settings:normal;text-align:start;letter-spacing:0px;word-spacing:0px;writing-mode:lr-tb;text-anchor:start;fill:#000000;fill-opacity:1;stroke:none;stroke-width:0.71425349;"
   x="-25.923553"
   y="1020.0473"
   id="text1788-4"
   transform="matrix(1.1062627,0,0.02779645,0.9039444,0,0)"><tspan
     sodipodi:role="line"
     id="tspan1786-7"
     x="-25.923553"
     y="1020.0473"
     style="font-style:normal;font-variant:normal;font-weight:normal;font-stretch:normal;font-size:28.570158px;font-family:'Bitstream Charter';-inkscape-font-specification:'Bitstream Charter, Normal';font-variant-ligatures:normal;font-variant-caps:normal;font-variant-numeric:normal;font-feature-settings:normal;text-align:start;writing-mode:lr-tb;text-anchor:start;stroke-width:0.71425349;fill:#000000;">treegix</tspan></text>
</svg>